<?xml version="1.0" encoding="utf-8" ?><svg xmlns="http://www.w3.org/2000/svg" xmlns:xlink="http://www.w3.org/1999/xlink" width="1536" height="1024" viewBox="0 0 1536 1024"><path fill="white" d="M0 0L1536 0L1536 1024L0 1024L0 0Z"/><path fill="#092243" d="M770.488 212.604C774.341 213.527 780.963 217.547 784.793 219.211C797.299 224.648 820.151 238.465 832.372 241.977L834.874 242.974C835.255 259.487 835.49 279.681 834.732 296.067C835.192 304.948 835.02 315.838 834.651 324.768L835.703 325.018C851.073 319.672 880.747 306.301 896.19 299.359C900.102 300.535 911.343 306.321 915.79 308.495C930.573 315.728 945.285 323.105 959.924 330.626L959.977 401.524C962.849 399.871 968.211 397.786 971.425 396.425C975.525 397.053 1023.5 421.385 1030.75 425.182L1030.69 448.332L1030.73 486.623C1030.79 492.412 1030.89 498.2 1031.05 503.987C1045.96 506.139 1125.8 518.186 1133.8 523.055C1137.73 533.609 1119.84 616.487 1118.98 632.827C1118.77 636.754 1114.27 665.715 1113.32 669.152C1098.27 683.255 1088.88 689.007 1069.55 696.798C1069.65 702.389 1070.97 711.664 1066.79 715.97C1059.2 723.786 1003.84 735.743 990.024 740.684C990.044 746.384 989.931 752.655 990.102 758.303C989.706 767.571 987.621 771.732 979.789 776.823C977.732 778.083 967.371 784.071 965.858 784.179C948.688 785.399 926.784 784.841 909.696 784.843L756.216 784.809L635.75 784.817C617.088 784.796 597.817 785.117 579.159 784.582C573.844 784.43 566.668 779.493 561.701 776.654C553.673 771.501 550.831 768.243 550.484 758.421C550.787 754.644 550.608 746.584 550.626 742.515C527.751 734.674 503.954 729.193 480.767 722.387C466.247 718.126 467.888 710.026 468.043 697.544C448.576 689.007 437.892 683.776 421.957 670.088C420.003 661.801 418.131 647.061 416.728 638.224L408.679 589.37C405.55 569.555 400.891 549.419 398.884 529.533C398.695 527.659 398.636 525.842 399.652 524.164C399.767 523.976 399.901 523.8 400.023 523.616C400.13 523.457 400.224 523.289 400.339 523.136C403.354 519.126 481.064 505.706 491.925 503.794L491.928 417.803C505.141 410.944 529.182 401.321 543.581 395.022C552.158 399.285 564.217 404.857 572.183 409.461L571.893 315.732C596.304 305.61 620.824 295.757 645.451 286.174C664.092 296.644 685.829 305.029 705.121 314.427C704.966 304.538 705.052 292.359 705.591 282.566C705.489 275.951 704.286 253.805 706.892 249.114C710.942 246.339 711.839 246.424 711.348 241.337C728.584 231.008 752.412 222.108 770.488 212.604Z"/><defs><linearGradient id="gradient_0" gradientUnits="userSpaceOnUse" x1="769.16956" y1="770.88611" x2="771.33002" y2="643.23456"><stop offset="0" stop-color="#B8330E"/><stop offset="1" stop-color="#E14830"/></linearGradient></defs><path fill="url(#gradient_0)" d="M594.598 638.727L829.366 638.458L898.337 638.529C908.44 638.552 922.87 639.062 932.681 638.615C995.372 641.536 990.36 628.578 989.962 697.143C990.192 711.656 990.213 726.171 990.024 740.684C990.044 746.384 989.931 752.655 990.102 758.303C989.706 767.571 987.621 771.732 979.789 776.823C977.732 778.083 967.371 784.071 965.858 784.179C948.688 785.399 926.784 784.841 909.696 784.843L756.216 784.809L635.75 784.817C617.088 784.796 597.817 785.117 579.159 784.582C573.844 784.43 566.668 779.493 561.701 776.654C553.673 771.501 550.831 768.243 550.484 758.421C550.787 754.644 550.608 746.584 550.626 742.515C551.082 736.83 550.784 725.826 550.774 719.715L550.689 676.469C550.673 667.769 549.032 652.436 554.571 645.83C561.992 635.503 582.807 638.98 594.598 638.727Z"/><path fill="#050B22" d="M561.701 776.654C589.855 775.329 625.672 776.417 654.484 776.432L828.753 776.411L930.013 776.431C939.779 776.413 971.135 775.688 979.789 776.823C977.732 778.083 967.371 784.071 965.858 784.179C948.688 785.399 926.784 784.841 909.696 784.843L756.216 784.809L635.75 784.817C617.088 784.796 597.817 785.117 579.159 784.582C573.844 784.43 566.668 779.493 561.701 776.654Z"/><path fill="#74191B" d="M976.949 768.582C983.388 765.331 985.717 759.635 990.102 758.303C989.706 767.571 987.621 771.732 979.789 776.823C971.135 775.688 939.779 776.413 930.013 776.431L828.753 776.411L654.484 776.432C625.672 776.417 589.855 775.329 561.701 776.654C553.673 771.501 550.831 768.243 550.484 758.421C553.743 758.84 559.413 766.001 564.517 769.054L867.036 768.848L947.245 768.908C951.77 768.894 974.249 769.069 976.949 768.582Z"/><path fill="#F77360" d="M594.598 638.727L829.366 638.458L898.337 638.529C908.44 638.552 922.87 639.062 932.681 638.615C995.372 641.536 990.36 628.578 989.962 697.143L989.136 696.953C989.179 693.457 989.816 688.364 987.736 685.801C983.642 689.99 985.956 707.945 985.707 715.067C982.526 711.191 986.616 663.946 983.864 656.232C981.625 649.956 980.363 648.796 974.593 645.541C951.285 644.349 917.8 645.718 893.493 645.679L715.553 645.683L616.5 645.579C599.797 645.521 582.522 644.958 565.852 645.859C562.498 646.041 555.424 652.384 552.597 654.758C552.483 652.967 554.019 648.016 554.571 645.83C561.992 635.503 582.807 638.98 594.598 638.727Z"/><path fill="#CE421D" d="M989.136 696.953L989.962 697.143C990.192 711.656 990.213 726.171 990.024 740.684C990.044 746.384 989.931 752.655 990.102 758.303C985.717 759.635 983.388 765.331 976.949 768.582C971.203 768.184 970.298 767.604 966.851 762.593C963.492 757.711 963.828 753.515 968.815 750.062C973.321 749.165 974.891 749.19 979.538 749.251L982.093 753.601C982.968 757.278 983.204 759.134 982.151 762.782C983.477 761.339 984.985 759.327 986.781 758.495C987.903 757.976 987.514 758.275 988.458 757.496C989.428 756.696 988.778 702.762 989.136 696.953Z"/><path fill="#F6894B" d="M968.815 750.062C973.321 749.165 974.891 749.19 979.538 749.251L982.093 753.601L981.157 757.567C977.85 764.047 970.522 761.447 967.558 755.948C966.556 754.088 967.984 751.876 968.815 750.062Z"/><path fill="#FE995C" d="M979.538 749.251L982.093 753.601L981.157 757.567C978.823 757.904 978.548 757.857 976.357 756.978C974.807 754.95 975.145 755.949 975.237 753.298C976.408 750.784 977.052 750.595 979.538 749.251Z"/><defs><linearGradient id="gradient_1" gradientUnits="userSpaceOnUse" x1="723.21844" y1="729.4248" x2="721.23468" y2="656.6969"><stop offset="0" stop-color="#FEEAA4"/><stop offset="1" stop-color="#FDFEFC"/></linearGradient></defs><path fill="url(#gradient_1)" d="M683.844 717.149C684.178 679.559 674.522 654.74 720.174 655.615C762.053 656.418 762.709 659.982 761.832 700.285C762.412 731.137 766.924 750.229 728.449 748.95C700.089 748.007 683.674 752.613 683.844 717.149Z"/><defs><linearGradient id="gradient_2" gradientUnits="userSpaceOnUse" x1="722.20959" y1="747.21118" x2="722.26141" y2="720.23779"><stop offset="0" stop-color="#FED456"/><stop offset="1" stop-color="#FDE792"/></linearGradient></defs><path fill="url(#gradient_2)" d="M709.359 698.766C709.628 694.343 708.177 680.305 710.727 677.909C715.217 673.691 731.533 673.812 735.999 678.26C737.299 681.7 736.723 692.149 736.688 696.517L736.832 697.381C737.906 704.032 737.126 710.451 737.457 717.054C737.579 719.495 742.874 718.623 737.837 724.438L737.677 725.439C742.349 728.167 750.34 724.3 760.176 728.674C760.363 724.586 760.349 723.609 759.64 719.594L758.476 718.656L760.269 718.564C762.582 714.653 761.043 705.369 761.832 700.285C762.412 731.137 766.924 750.229 728.449 748.95C700.089 748.007 683.674 752.613 683.844 717.149C693.364 715.924 698.271 718.545 708.291 718.308C708.595 711.67 708.241 705.357 709.359 698.766Z"/><path fill="#CE421D" d="M709.359 698.766C709.628 694.343 708.177 680.305 710.727 677.909C715.217 673.691 731.533 673.812 735.999 678.26C737.299 681.7 736.723 692.149 736.688 696.517C736.65 700.314 736.304 710.112 736.901 713.089C740.371 730.399 722.82 732.775 711.72 726.165C707.721 723.784 709.526 703.808 709.359 698.766Z"/><defs><linearGradient id="gradient_3" gradientUnits="userSpaceOnUse" x1="905.85559" y1="728.21283" x2="907.76355" y2="656.72687"><stop offset="0" stop-color="#FEE696"/><stop offset="1" stop-color="#FEFFFF"/></linearGradient></defs><path fill="url(#gradient_3)" d="M879.251 700.921C869.579 696.966 868.409 689.216 868.145 679.93C867.167 655.741 885.491 655.428 903.927 655.598C915.32 655.703 939.305 654.416 942.79 668.656C945.995 681.754 945.937 695.682 932.024 701.215C938.809 704.513 941.075 706.264 944.866 712.949C944.939 718.801 945.063 724.671 944.915 730.519C942.398 750.08 924.279 748.967 909.066 748.755C889.006 748.477 867.7 751.989 867.641 725.153C867.824 711.61 867.097 708.358 879.251 700.921Z"/><path fill="#FCD76A" d="M893.577 724.88C897.03 732.24 910.106 729.964 916.673 728.575C917.646 728.369 919.126 725.949 919.512 725.023C926.765 726.648 937.754 729.373 944.915 730.519C942.398 750.08 924.279 748.967 909.066 748.755C889.006 748.477 867.7 751.989 867.641 725.153C872.565 725.912 890.175 727.61 893.577 724.88Z"/><path fill="#CE421D" d="M893.577 724.88C893.343 721.542 892.393 716.566 894.889 713.749C900.07 707.903 912.226 710.04 918.243 713.361C920.06 714.365 919.565 722.747 919.512 725.023C919.126 725.949 917.646 728.369 916.673 728.575C910.106 729.964 897.03 732.24 893.577 724.88Z"/><path fill="#CE421D" d="M896.145 675.153C900.889 674.814 912.456 673.378 916.233 676.47C920.524 679.983 919.539 689.365 915.893 693.515C910.935 693.5 900.727 694.91 896.768 692.187C892.397 689.181 893.034 679.237 896.145 675.153Z"/><path fill="#FDEEBC" d="M816.345 655.844C825.125 656.21 835.877 655.916 844.903 656.083C845.519 672.828 845.162 694.081 844.869 710.875C849.524 710.407 852.462 710.426 857.167 710.517L857.062 729.7L845 729.864C844.866 736.2 844.686 742.27 844.975 748.608C836.798 748.554 828.318 748.62 820.171 748.431C820.114 742.236 820.145 736.041 820.262 729.847C805.756 729.894 788.912 730.284 774.607 729.574C774.577 725.939 774.405 721.212 774.76 717.703L774.702 707.096C783.231 694.003 805.777 667.775 816.345 655.844Z"/><path fill="#FCD76A" d="M844.869 710.875C849.524 710.407 852.462 710.426 857.167 710.517L857.062 729.7L845 729.864C844.866 736.2 844.686 742.27 844.975 748.608C836.798 748.554 828.318 748.62 820.171 748.431C820.114 742.236 820.145 736.041 820.262 729.847C805.756 729.894 788.912 730.284 774.607 729.574C774.577 725.939 774.405 721.212 774.76 717.703C776.684 722.866 774.158 723.098 776.436 727.112C781.068 729.046 816.39 728.096 822.738 727.077C832.42 725.523 846.191 726.926 855.25 725.518C855.807 720.51 856.18 716.366 856.41 711.287C852.094 711.332 849.131 711.388 844.869 710.875Z"/><path fill="#CE421D" d="M820.182 680.212C820.87 684.604 820.421 705.086 820.383 710.564L796 710.635C796.107 708.177 817.197 683.863 820.182 680.212Z"/><defs><linearGradient id="gradient_4" gradientUnits="userSpaceOnUse" x1="622.88666" y1="726.84772" x2="637.89435" y2="654.71423"><stop offset="0" stop-color="#FDE598"/><stop offset="1" stop-color="#FEFFFF"/></linearGradient></defs><path fill="url(#gradient_4)" d="M596.233 685.755C596.177 680.336 595.343 665.768 599.788 662.171C611.075 653.036 654.478 652.319 664.432 662.953C672.905 672.005 672.242 697.034 661.393 704.354C650.888 713.496 639.627 719.294 629.401 727.526C629.153 726.678 628.862 726.123 628.503 725.315C621.42 722.764 608.915 723.741 600.651 723.548C608.66 716.961 678.193 674.693 628.602 675.141C626.114 675.164 622.378 675.456 620.343 676.957C618.844 679.624 618.963 683.048 618.792 686.158C611.244 685.931 603.786 685.663 596.233 685.755Z"/><path fill="#FCD76A" d="M596.231 726.856C597.658 725.602 599.105 724.634 600.651 723.548C608.915 723.741 621.42 722.764 628.503 725.315C628.862 726.123 629.153 726.678 629.401 727.526L629.079 728.1C631.299 729.03 664.52 728.645 669.853 728.654L669.807 748.629C645.283 748.785 620.757 748.717 596.234 748.426C596.06 741.437 596.217 733.89 596.231 726.856Z"/><path fill="white" d="M575.001 748.444C582.444 748.595 584.385 754.459 578.609 759.847C574.761 758.986 572.484 758.014 571.224 754.322C571.599 751.42 572.907 750.584 575.001 748.444Z"/><defs><linearGradient id="gradient_5" gradientUnits="userSpaceOnUse" x1="676.96802" y1="396.31833" x2="823.40674" y2="317.35446"><stop offset="0" stop-color="#0C0829"/><stop offset="1" stop-color="#00293F"/></linearGradient></defs><path fill="url(#gradient_5)" d="M770.488 212.604C774.341 213.527 780.963 217.547 784.793 219.211C797.299 224.648 820.151 238.465 832.372 241.977L834.874 242.974C835.255 259.487 835.49 279.681 834.732 296.067C835.192 304.948 835.02 315.838 834.651 324.768L835.703 325.018C835.608 336.779 835.99 351.077 835.5 362.539C836.388 371.615 835.89 380.539 836.225 389.583C834.089 390.535 827.816 393.137 826.266 394.324C825.465 404.322 825.916 415.917 825.834 426.168C823.756 426.947 817.591 429.544 816.041 428.996L815.721 425.537C815.557 427.456 815.544 429.769 814.733 431.455C814.462 434.157 814.222 436.862 814.012 439.57L808.817 440.567C807.873 438.052 809.237 438.55 807.102 436.016C804.118 435.151 799.946 437.333 796.547 438.518L795.969 438.696C795.949 442.565 796.435 445.336 793.888 448.181L792.486 448.006C790.618 446.013 790.628 443.819 790.178 441.015L770.261 448.537C770.237 443.572 770.045 439.826 769.611 434.878C768.918 442.796 769.864 450.159 770.061 458.073C770.276 466.719 770.271 475.401 770.271 484.051C778.705 483.836 790.239 483.496 798.605 484.168C793.125 485.046 785.795 484.206 780.097 484.631C760.872 486.065 741.868 484.559 722.631 484.806C723.245 478.041 723.265 438.807 722.342 433.206C721.601 419.954 722.796 404.153 722.152 390.298C722.544 370.706 722.586 348.351 722.241 328.773L722.585 325.602C720.276 320.552 710.828 317.16 705.797 314.973C705.401 304.272 706.398 293.323 705.591 282.566C705.489 275.951 704.286 253.805 706.892 249.114C710.942 246.339 711.839 246.424 711.348 241.337C728.584 231.008 752.412 222.108 770.488 212.604Z"/><path fill="#047EA1" d="M770.488 212.604C774.341 213.527 780.963 217.547 784.793 219.211C797.299 224.648 820.151 238.465 832.372 241.977L834.874 242.974C835.255 259.487 835.49 279.681 834.732 296.067C835.192 304.948 835.02 315.838 834.651 324.768L835.703 325.018C835.608 336.779 835.99 351.077 835.5 362.539C836.388 371.615 835.89 380.539 836.225 389.583C834.089 390.535 827.816 393.137 826.266 394.324C825.465 404.322 825.916 415.917 825.834 426.168C823.756 426.947 817.591 429.544 816.041 428.996L815.721 425.537C815.557 427.456 815.544 429.769 814.733 431.455C814.462 434.157 814.222 436.862 814.012 439.57L808.817 440.567C807.873 438.052 809.237 438.55 807.102 436.016C804.118 435.151 799.946 437.333 796.547 438.518L795.969 438.696C795.949 442.565 796.435 445.336 793.888 448.181L792.486 448.006C790.618 446.013 790.628 443.819 790.178 441.015L770.261 448.537C770.237 443.572 770.045 439.826 769.611 434.878C770.146 410.011 769.761 383.892 769.752 358.937L769.611 279.807C769.593 268.349 769.062 246.653 770.136 236.133C769.965 229.186 770.094 219.38 770.488 212.604Z"/><path fill="#0B5D86" d="M770.136 236.133C771.031 259.469 769.326 286.814 770.738 309.386C771.32 301.973 771.008 290.957 771.008 283.268C774.968 280.849 784.229 274.657 788.499 274.635C790.61 288.729 788.018 319.221 789.925 334.103L790.525 333.917C790.757 337.151 790.261 341.291 791.976 342.832C794.059 342.479 794.33 342.399 796.315 341.664L796.761 344.176C796.307 362.299 796.549 381.187 796.528 399.405C796.516 409.782 796.068 425.224 796.667 435.401L796.547 438.518L795.969 438.696C795.949 442.565 796.435 445.336 793.888 448.181L792.486 448.006C790.618 446.013 790.628 443.819 790.178 441.015L770.261 448.537C770.237 443.572 770.045 439.826 769.611 434.878C770.146 410.011 769.761 383.892 769.752 358.937L769.611 279.807C769.593 268.349 769.062 246.653 770.136 236.133Z"/><defs><linearGradient id="gradient_6" gradientUnits="userSpaceOnUse" x1="811.30621" y1="429.57147" x2="775.17755" y2="350.38126"><stop offset="0" stop-color="#366992"/><stop offset="1" stop-color="#599EBB"/></linearGradient></defs><path fill="url(#gradient_6)" d="M789.925 334.103L790.525 333.917C790.757 337.151 790.261 341.291 791.976 342.832C794.059 342.479 794.33 342.399 796.315 341.664L796.761 344.176C796.307 362.299 796.549 381.187 796.528 399.405C796.516 409.782 796.068 425.224 796.667 435.401L796.547 438.518L795.969 438.696C793.762 439.37 792.72 440.102 790.766 439.568C789.924 433.087 790.306 417.906 790.298 410.775C790.003 385.264 790.429 359.593 789.925 334.103Z"/><path fill="#184B75" d="M769.752 358.937L769.86 359.66C770.641 365.112 770.431 374.973 770.49 380.947C770.625 395.58 770.675 410.213 770.641 424.847C770.666 429.374 770.77 442.626 771.652 446.509C773.316 445.931 776.469 444.907 777.716 444.17C781.248 442.084 787.649 443.245 788.445 438.457C790.059 428.746 788.51 417.113 789.18 406.973C789.762 408.573 789.936 409.12 790.298 410.775C790.306 417.906 789.924 433.087 790.766 439.568C792.72 440.102 793.762 439.37 795.969 438.696C795.949 442.565 796.435 445.336 793.888 448.181L792.486 448.006C790.618 446.013 790.628 443.819 790.178 441.015L770.261 448.537C770.237 443.572 770.045 439.826 769.611 434.878C770.146 410.011 769.761 383.892 769.752 358.937Z"/><path fill="#0B5D86" d="M814.566 311.394C817.285 298.284 814.58 269.376 816.483 259.149C821.063 258.031 823.682 252.553 828.218 252.104L828.426 253.909C829.806 252.233 830.536 251.007 832.479 250.146C835.258 254.406 831.568 288.199 834.732 296.067C835.192 304.948 835.02 315.838 834.651 324.768L835.703 325.018C835.608 336.779 835.99 351.077 835.5 362.539C836.388 371.615 835.89 380.539 836.225 389.583C834.089 390.535 827.816 393.137 826.266 394.324C825.465 404.322 825.916 415.917 825.834 426.168C823.756 426.947 817.591 429.544 816.041 428.996L815.721 425.537C815.557 427.456 815.544 429.769 814.733 431.455C812.763 432.596 810.766 433.719 808.675 433.405C807.247 431.2 807.688 427.398 807.693 424.532C808.236 416.962 807.885 406.011 807.85 398.215L807.509 352.051C807.469 343.676 807.525 335.3 807.677 326.926C808.708 323.478 809.79 321.829 813.454 322.477L814.52 324.931C814.34 320.596 814.509 315.77 814.566 311.394Z"/><path fill="#2B88AE" d="M807.677 326.926C808.708 323.478 809.79 321.829 813.454 322.477L814.52 324.931C814.71 349.535 814.681 374.139 814.431 398.742C814.4 403.694 813.985 427.683 814.733 431.455C812.763 432.596 810.766 433.719 808.675 433.405C807.247 431.2 807.688 427.398 807.693 424.532C808.236 416.962 807.885 406.011 807.85 398.215L807.509 352.051C807.469 343.676 807.525 335.3 807.677 326.926Z"/><path fill="#047EA1" d="M834.651 324.768L835.703 325.018C835.608 336.779 835.99 351.077 835.5 362.539C833.516 356.386 833.493 331.298 834.651 324.768Z"/><path fill="#0B5D86" d="M798.125 285.568C800.835 283.336 801.507 282.6 804.88 281.518L806.009 282.04C806.873 289.677 805.846 296.835 806.275 303.827C807.115 317.523 806.1 338.958 807.509 352.051L807.85 398.215C807.885 406.011 808.236 416.962 807.693 424.532C807.688 427.398 807.247 431.2 808.675 433.405C810.766 433.719 812.763 432.596 814.733 431.455C814.462 434.157 814.222 436.862 814.012 439.57L808.817 440.567C807.873 438.052 809.237 438.55 807.102 436.016C804.118 435.151 799.946 437.333 796.547 438.518L796.667 435.401C796.068 425.224 796.516 409.782 796.528 399.405C796.549 381.187 796.307 362.299 796.761 344.176C798.156 325.336 798.293 304.451 798.125 285.568Z"/><path fill="#184B75" d="M796.667 435.401C797.172 431.788 797.441 427.045 797.762 423.327L798.137 435.876C799.484 436.424 803.729 434.15 806.009 433.395L806.566 433.215C806.817 430.289 806.998 427.997 807.575 425.104L807.693 424.532C807.688 427.398 807.247 431.2 808.675 433.405C810.766 433.719 812.763 432.596 814.733 431.455C814.462 434.157 814.222 436.862 814.012 439.57L808.817 440.567C807.873 438.052 809.237 438.55 807.102 436.016C804.118 435.151 799.946 437.333 796.547 438.518L796.667 435.401Z"/><defs><linearGradient id="gradient_7" gradientUnits="userSpaceOnUse" x1="812.89551" y1="331.95694" x2="772.11029" y2="253.80254"><stop offset="0" stop-color="#59A1BC"/><stop offset="1" stop-color="#89D4E3"/></linearGradient></defs><path fill="url(#gradient_7)" d="M790.302 241.555L796.489 244.082C796.692 265.729 796.743 287.376 796.641 309.024C796.631 317.003 797.102 334.826 796.315 341.664C794.33 342.399 794.059 342.479 791.976 342.832C790.261 341.291 790.757 337.151 790.525 333.917C789.832 323.61 790.122 310.542 790.109 299.919L790.302 241.555Z"/><path fill="#4AC2DD" d="M807.677 326.926C808.317 301.699 806.829 275.365 807.642 250.225C808.905 249.808 812.915 251.672 814.586 252.288C814.434 271.99 814.427 291.692 814.566 311.394C814.509 315.77 814.34 320.596 814.52 324.931L813.454 322.477C809.79 321.829 808.708 323.478 807.677 326.926Z"/><defs><linearGradient id="gradient_8" gradientUnits="userSpaceOnUse" x1="878.16882" y1="487.63611" x2="917.38312" y2="392.77734"><stop offset="0" stop-color="#DA4925"/><stop offset="1" stop-color="#FDA141"/></linearGradient></defs><path fill="url(#gradient_8)" d="M896.19 299.359C900.102 300.535 911.343 306.321 915.79 308.495C930.573 315.728 945.285 323.105 959.924 330.626L959.977 401.524C954.608 404.545 936.418 411.7 930.682 413.36L930.199 404.052C930.142 424.539 930.647 447.055 930.058 467.324C930.116 471.757 931.031 489.283 928.922 491.674L927.926 491.783C922.798 491.247 917.348 490.987 912.179 490.654L908.179 490.185L896.298 489.177C889.939 489.142 879.57 488.055 872.936 487.573C858.451 487.553 841.47 485.512 826.078 485.328L825.834 426.168C825.916 415.917 825.465 404.322 826.266 394.324C827.816 393.137 834.089 390.535 836.225 389.583C835.89 380.539 836.388 371.615 835.5 362.539C835.99 351.077 835.608 336.779 835.703 325.018C851.073 319.672 880.747 306.301 896.19 299.359Z"/><defs><linearGradient id="gradient_9" gradientUnits="userSpaceOnUse" x1="926.73218" y1="410.29904" x2="927.90222" y2="301.15488"><stop offset="0" stop-color="#125581"/><stop offset="1" stop-color="#0588AE"/></linearGradient></defs><path fill="url(#gradient_9)" d="M896.19 299.359C900.102 300.535 911.343 306.321 915.79 308.495C930.573 315.728 945.285 323.105 959.924 330.626L959.977 401.524C954.608 404.545 936.418 411.7 930.682 413.36L930.199 404.052L930.165 401.425C928.614 398.763 900.492 385.902 895.696 383.486C888.656 380.694 880.234 376.019 872.93 372.841C860.33 379.347 848.601 383.751 836.225 389.583C835.89 380.539 836.388 371.615 835.5 362.539C835.99 351.077 835.608 336.779 835.703 325.018C851.073 319.672 880.747 306.301 896.19 299.359Z"/><defs><linearGradient id="gradient_10" gradientUnits="userSpaceOnUse" x1="875.92065" y1="384.82993" x2="857.51392" y2="310.629"><stop offset="0" stop-color="#021E38"/><stop offset="1" stop-color="#003B5E"/></linearGradient></defs><path fill="url(#gradient_10)" d="M835.703 325.018C851.073 319.672 880.747 306.301 896.19 299.359C896.298 326.386 896.64 356.641 895.696 383.486C888.656 380.694 880.234 376.019 872.93 372.841C860.33 379.347 848.601 383.751 836.225 389.583C835.89 380.539 836.388 371.615 835.5 362.539C835.99 351.077 835.608 336.779 835.703 325.018Z"/><path fill="white" d="M902.173 328.21L915.826 335.414L916.485 349.371C911.581 347.316 906.994 344.769 902.305 342.27L902.173 328.21Z"/><defs><linearGradient id="gradient_11" gradientUnits="userSpaceOnUse" x1="945.94373" y1="390.70938" x2="946.30627" y2="375.2276"><stop offset="0" stop-color="#7AACC7"/><stop offset="1" stop-color="#9DC5D4"/></linearGradient></defs><path fill="url(#gradient_11)" d="M939.692 373.171C944.195 375.7 948.759 378.116 953.382 380.418L953.464 393.56L940.033 387.049C939.731 382.69 939.768 377.595 939.692 373.171Z"/><path fill="#D9D4D6" d="M902.329 354.37C906.759 356.771 911.202 359.15 915.657 361.506L915.517 374.895L902.537 368.382L902.329 354.37Z"/><path fill="#D9D4D6" d="M921.632 338.472C926.147 340.998 929.808 343 934.556 345.174L934.453 359.033C930.389 356.453 925.788 354.328 921.451 352.195L921.632 338.472Z"/><path fill="#AB2D2D" d="M836.225 389.583C848.601 383.751 860.33 379.347 872.93 372.841C872.184 390.728 872.662 408.313 872.565 426.189C872.525 433.618 872.877 443.301 872.271 450.488L872.936 487.573C858.451 487.553 841.47 485.512 826.078 485.328L825.834 426.168C825.916 415.917 825.465 404.322 826.266 394.324C827.816 393.137 834.089 390.535 836.225 389.583Z"/><path fill="#74191B" d="M825.834 426.168C825.916 415.917 825.465 404.322 826.266 394.324C826.563 413.843 826.702 433.364 826.684 452.885C834.855 454.457 865.1 458.857 870.388 461.023L871.351 460.459C871.912 456.397 870.581 452.098 872.271 450.488L872.936 487.573C858.451 487.553 841.47 485.512 826.078 485.328L825.834 426.168Z"/><defs><linearGradient id="gradient_12" gradientUnits="userSpaceOnUse" x1="901.18567" y1="472.0434" x2="902.56433" y2="460.43427"><stop offset="0" stop-color="#ED9739"/><stop offset="1" stop-color="#FAB451"/></linearGradient></defs><path fill="url(#gradient_12)" d="M896.849 458.307C899.984 459.601 904.804 461.765 907.899 462.755L908.227 474.102C906.536 475.274 900.207 471.663 897.66 470.802L897.059 470.605C896.93 466.464 896.799 462.457 896.849 458.307Z"/><path fill="#F8B350" d="M896.179 477.119C901.244 479.114 906.9 480.2 908.829 484.547L908.179 490.185L896.298 489.177L896.179 477.119Z"/><path fill="#CE421D" d="M897.059 470.605L897.66 470.802C900.207 471.663 906.536 475.274 908.227 474.102L911.199 474.717C912.721 477.211 912.198 479.938 912.077 483.01L910.03 482.1C908.999 483.139 909.097 483.091 908.829 484.547C906.9 480.2 901.244 479.114 896.179 477.119L896.086 476.894L896.558 476.17C899.266 476.983 900.684 477.182 902.597 475.102C901.662 473.15 899.275 472.577 896.88 471.397L897.059 470.605Z"/><path fill="#AB2D2D" d="M908.829 484.547C909.097 483.091 908.999 483.139 910.03 482.1L912.077 483.01L912.179 490.654L908.179 490.185L908.829 484.547Z"/><defs><linearGradient id="gradient_13" gradientUnits="userSpaceOnUse" x1="885.86487" y1="485.72757" x2="884.76318" y2="472.26633"><stop offset="0" stop-color="#E89F29"/><stop offset="1" stop-color="#F7BD3A"/></linearGradient></defs><path fill="url(#gradient_13)" d="M879.087 470.137L891.907 476.579C891.857 480.436 892.079 484.753 892.191 488.645C889.396 487.306 883.152 485.726 879.933 484.811C879.437 480.234 879.312 474.794 879.087 470.137Z"/><path fill="#F8B350" d="M879.481 449.755L891.463 455.485L891.491 467.333C887.663 465.91 883.62 464.189 879.807 462.653L879.481 449.755Z"/><path fill="#F8B350" d="M912.343 464.492C915.878 466.443 919.565 468.039 923.245 469.697L923.121 481.541C919.864 480.325 915.806 478.437 912.541 477.033L912.343 464.492Z"/><path fill="#FDEEBC" d="M880.324 392.98C883.81 394.59 889.586 398.054 893.125 400.024L892.907 410.027C890.31 408.887 883.291 404.546 880.503 402.924L880.324 392.98Z"/><path fill="#FCD76A" d="M879.89 410.004C882.465 411.09 889.232 415.338 891.947 416.953L892.243 425.75C890.286 425.691 881.996 420.92 879.688 419.689L879.89 410.004Z"/><path fill="#FCD76A" d="M897.552 402.107C901.603 403.795 904.389 405.4 908.226 407.573L908.22 418.925C904.55 416.568 900.893 414.191 897.249 411.794L897.552 402.107Z"/><path fill="#F8B350" d="M880.44 428.468C882.552 429.375 889.361 433.348 891.786 434.635L891.62 444.281C888.386 442.362 883.854 440.22 880.424 438.473L880.44 428.468Z"/><path fill="#FCD76A" d="M912.144 427.767C914.873 428.741 920.406 431.595 923.232 432.949L923.072 442.502C913.71 439.36 911.903 437.135 912.144 427.767Z"/><defs><linearGradient id="gradient_14" gradientUnits="userSpaceOnUse" x1="902.73755" y1="450.36429" x2="901.87866" y2="439.34387"><stop offset="0" stop-color="#F9B452"/><stop offset="1" stop-color="#FFD069"/></linearGradient></defs><path fill="url(#gradient_14)" d="M897.538 437.942C900.945 439.775 904.237 441.392 907.72 443.081C907.574 446.2 907.622 449.687 907.597 452.841C905.112 451.393 900.175 449.213 897.421 447.889L897.538 437.942Z"/><path fill="#FCD76A" d="M912.396 410.308L922.264 415.607L922.217 425.161C919.591 423.818 915.532 422.239 912.711 421.047L912.396 410.308Z"/><path fill="#F8B350" d="M896.945 419.776C900.526 421.533 904.075 423.354 907.592 425.236L907.572 434.416C898.417 429.766 896.785 430.62 896.945 419.776Z"/><path fill="#F8B350" d="M912.695 445.288C921.709 448.624 923.168 449.708 922.614 458.847C919.022 457.119 917.5 456.656 913.642 455.547L912.695 445.288Z"/><path fill="#2B88AE" d="M705.121 314.427C704.966 304.538 705.052 292.359 705.591 282.566C706.398 293.323 705.401 304.272 705.797 314.973C710.828 317.16 720.276 320.552 722.585 325.602L722.241 328.773C722.586 348.351 722.544 370.706 722.152 390.298C722.796 404.153 721.601 419.954 722.342 433.206C722.086 450.032 721.949 466.859 721.93 483.687C699.416 484.494 676.815 484.531 654.317 486.09C651.571 486.281 649.752 486.619 646.976 486.075C644.262 480.923 647.305 441.223 644.892 437.82C648.716 432.333 647.475 431.72 644.517 426.041C645.548 424.009 645.815 410.32 645.935 407.262C643.177 401.627 642.047 403.945 643.558 396.575C644.455 398.52 644.989 401.232 645.509 403.365C646.604 401.259 645.294 391.049 645.756 388.637C646.192 386.358 651.93 386.758 654.31 383.322C648.305 376.992 645.799 379.368 644.393 370.688C646.385 368.394 645.913 360.284 645.019 357.468C647.045 351.843 646.834 350.589 645.495 344.909C646.482 336.739 645.81 304.939 645.81 295.623C645.794 292.494 645.599 289.305 645.451 286.174C664.092 296.644 685.829 305.029 705.121 314.427Z"/><path fill="#4AC2DD" d="M705.121 314.427C704.966 304.538 705.052 292.359 705.591 282.566C706.398 293.323 705.401 304.272 705.797 314.973C710.828 317.16 720.276 320.552 722.585 325.602L722.241 328.773C722.586 348.351 722.544 370.706 722.152 390.298C720.318 383.879 722.187 354.061 721.213 344.218C720.143 342.202 717.779 341.208 715.688 339.989C715.454 345.103 715.53 351.215 715.48 356.399C707.235 352.387 698.965 348.87 691.324 343.785C688.685 342.029 683.714 344.023 682.345 347.544C683.958 351.016 687.634 348.839 690.242 353.048C690.228 355.66 690.53 361.017 689.436 363.032C686.225 362.952 676.692 359.249 674.767 356.339C674.252 355.562 675.778 353.318 673.879 351.164C667.406 353.73 668.283 355.587 661.232 351.935C658.36 350.447 656.348 349.852 653.543 347.735C648.686 335.537 657.455 339.136 661.336 335.824C659.937 328.952 656.769 331.682 653.885 327.004C653.246 325.968 655.072 323.917 652.631 321.043C649.988 320.204 648.814 319.233 646.848 320.149C645.536 323.738 647.381 345.311 647.242 350.664C647.045 358.227 646.302 366.92 646.632 374.496C649.126 379.201 653.422 377.171 654.859 383.255L654.31 383.322C648.305 376.992 645.799 379.368 644.393 370.688C646.385 368.394 645.913 360.284 645.019 357.468C647.045 351.843 646.834 350.589 645.495 344.909C646.482 336.739 645.81 304.939 645.81 295.623C645.794 292.494 645.599 289.305 645.451 286.174C664.092 296.644 685.829 305.029 705.121 314.427Z"/><path fill="#184B75" d="M705.121 314.427C704.966 304.538 705.052 292.359 705.591 282.566C706.398 293.323 705.401 304.272 705.797 314.973C710.828 317.16 720.276 320.552 722.585 325.602L722.241 328.773C698.342 320.363 668.988 303.009 645.81 295.623C645.794 292.494 645.599 289.305 645.451 286.174C664.092 296.644 685.829 305.029 705.121 314.427Z"/><path fill="white" d="M696.758 333.429C701.905 335.393 709.312 339.481 714.41 342.132C714.562 345.679 714.378 349.575 714.282 353.152C711.596 353.466 700.46 347.314 697.48 345.802C697.5 341.515 697.127 337.68 696.758 333.429Z"/><path fill="white" d="M654.885 313.848C659.478 316.326 664.306 318.599 669.007 320.885L669.324 333.352C664.713 331.119 660.044 329.009 655.321 327.024C655.357 322.693 655.082 318.188 654.885 313.848Z"/><path fill="white" d="M676.222 324.167L689.144 330.056L689.217 342.423C685.143 340.233 680.412 338.113 676.2 336.11L676.222 324.167Z"/><path fill="white" d="M654.551 337.331L668.3 343.152L668.299 353.602C662.819 350.541 660.548 349.402 654.593 347.152L654.551 337.331Z"/><path fill="#D5F2F4" d="M676.25 346.724L688.745 352.716L688.132 361.378C684.473 359.721 680.316 358.108 676.57 356.558L676.25 346.724Z"/><path fill="#4AC2DD" d="M654.31 383.322L654.859 383.255C662.299 390.641 680.174 397.058 690.004 402.796C689.918 407.461 689.773 412.125 689.57 416.786C674.953 410.797 662.622 404.764 645.935 407.262C643.177 401.627 642.047 403.945 643.558 396.575C644.455 398.52 644.989 401.232 645.509 403.365C646.604 401.259 645.294 391.049 645.756 388.637C646.192 386.358 651.93 386.758 654.31 383.322Z"/><path fill="#4AC2DD" d="M696.78 450.41C702.559 452.338 708.538 454.603 714.288 456.694C714.401 460.818 714.352 465.195 714.378 469.344C711.124 469.14 700.578 464.938 697.046 463.613L696.78 450.41Z"/><path fill="#4AC2DD" d="M696.41 354.62C706.574 356.528 717.101 360.838 714.381 372.889C704.86 370.886 691.701 366.881 696.41 354.62Z"/><path fill="#4AC2DD" d="M697.255 429.057C702.161 430.637 709.656 434.004 714.6 436.079L714.343 445.539C706.976 444.658 704.26 444.467 697.865 440.923L697.255 429.057Z"/><path fill="#4AC2DD" d="M695.501 376.078C710.321 377.105 710.134 382.006 707.678 393.612L706.842 394.462C704.236 394.344 699.505 391.921 696.877 390.746C696.447 385.854 695.988 380.965 695.501 376.078Z"/><defs><linearGradient id="gradient_15" gradientUnits="userSpaceOnUse" x1="682.03918" y1="384.79547" x2="682.21082" y2="369.88879"><stop offset="0" stop-color="#39B8D6"/><stop offset="1" stop-color="#55D8ED"/></linearGradient></defs><path fill="url(#gradient_15)" d="M675.719 367.708C677.464 368.029 686.594 372.158 688.83 373.111C688.972 377.598 688.798 382.412 688.718 386.925L687.972 387.347C684.639 387.444 678.982 381.802 676.303 379.421C675.865 375.601 675.829 371.568 675.719 367.708Z"/><defs><linearGradient id="gradient_16" gradientUnits="userSpaceOnUse" x1="663.87897" y1="452.39883" x2="659.64294" y2="436.96902"><stop offset="0" stop-color="#32B0CF"/><stop offset="1" stop-color="#56D5E9"/></linearGradient></defs><path fill="url(#gradient_16)" d="M654.791 436.139L668.302 441.403C668.423 445.566 668.377 449.932 668.397 454.112C665.729 453.621 657.898 450.54 654.968 449.464L654.791 436.139Z"/><path fill="#6BDFED" d="M654.526 357.164C657.152 357.591 666.254 361.861 669.161 363.15L668.74 374.205C663.902 373.007 659.21 371.098 654.54 369.332L654.526 357.164Z"/><path fill="#4AC2DD" d="M676.435 443.606L689.434 449.066L688.946 461.201C684.916 459.872 680.677 458.218 676.673 456.74L676.435 443.606Z"/><path fill="#4AC2DD" d="M654.626 415.199C659.626 417.155 663.369 418.374 668.463 419.912C668.778 423.708 668.822 428.015 668.949 431.86C663.781 429.766 660.171 428.298 654.764 426.789L654.626 415.199Z"/><path fill="#4AC2DD" d="M676.415 421.994C680.399 423.573 685.245 425.155 689.345 426.616C689.317 430.872 689.096 435.381 688.962 439.657C685.549 438.028 680.581 436.147 676.982 434.651L676.415 421.994Z"/><path fill="#D5F2F4" d="M696.245 406.503C701.115 408.773 707.494 411.777 712.074 414.41L711.8 415.219C710.573 415.943 710.105 416.774 709.255 417.913C709.279 418.543 709.141 418.495 708.764 419.215C705.226 420.014 700.816 419.341 697.123 418.993L696.245 406.503Z"/><path fill="#F77360" d="M971.425 396.425C975.525 397.053 1023.5 421.385 1030.75 425.182L1030.69 448.332L1030.73 486.623C1011.58 482.657 992.44 478.52 973.686 472.943C972.143 472.484 972.448 472.133 971.842 470.662C971.854 468.339 971.573 465.601 971.396 463.25L971.366 471.754C960.1 469.884 941.262 467.328 930.058 467.324C930.647 447.055 930.142 424.539 930.199 404.052L930.682 413.36C936.418 411.7 954.608 404.545 959.977 401.524C962.849 399.871 968.211 397.786 971.425 396.425Z"/><defs><linearGradient id="gradient_17" gradientUnits="userSpaceOnUse" x1="953.70465" y1="397.25711" x2="948.87354" y2="468.40012"><stop offset="0" stop-color="#8B292C"/><stop offset="1" stop-color="#531F3F"/></linearGradient></defs><path fill="url(#gradient_17)" d="M971.425 396.425C971.679 418.699 971.67 440.976 971.396 463.25L971.366 471.754C960.1 469.884 941.262 467.328 930.058 467.324C930.647 447.055 930.142 424.539 930.199 404.052L930.682 413.36C936.418 411.7 954.608 404.545 959.977 401.524C962.849 399.871 968.211 397.786 971.425 396.425Z"/><path fill="#E53E3C" d="M1020.49 448.333C1024.12 448.093 1027.38 448.549 1030.69 448.332L1030.73 486.623C1011.58 482.657 992.44 478.52 973.686 472.943C972.143 472.484 972.448 472.133 971.842 470.662C977.26 467.111 1004.08 455.635 1011.68 452.244C1014.16 450.986 1017.86 449.492 1020.49 448.333Z"/><path fill="#FDEEBC" d="M977.239 425.274C981.736 427.309 992.74 431.848 995.681 435.102L996.387 434.76C997.608 437.62 996.422 437.446 996.477 441.134L994.788 445.325L977.243 439.613L977.239 425.274Z"/><path fill="#F8B350" d="M995.681 435.102L996.387 434.76C997.608 437.62 996.422 437.446 996.477 441.134L994.788 445.325C994.685 442.157 994.354 437.84 995.681 435.102Z"/><path fill="#FCD76A" d="M996.387 434.76C1001.83 436.701 1016.71 443.748 1020.43 447.823L1020.49 448.333C1017.86 449.492 1014.16 450.986 1011.68 452.244C1004.23 450.235 998.615 449.293 996.477 441.134C996.422 437.446 997.608 437.62 996.387 434.76Z"/><path fill="#2B88AE" d="M543.581 395.022C552.158 399.285 564.217 404.857 572.183 409.461C572.173 423.529 572.357 438.089 572.103 452.116C570.579 456.073 571.121 469.867 570.162 475.707C559.229 476.22 555.706 477.642 545.972 481.648C545.11 479.026 545.223 469.826 545.009 466.639C543.617 445.842 544.966 424.207 543.947 403.577C543.865 400.748 543.707 397.855 543.581 395.022Z"/><path fill="white" d="M551.748 423.712C555.548 425.561 559.494 427.345 563.333 429.134L563.214 439.989C559.539 438.081 555.705 436.618 551.866 435.075L551.748 423.712Z"/><path fill="#A5B9CD" d="M552.076 456.432C556.113 458.234 559.242 459.405 563.425 460.864L563.489 471.409L552.082 466.619L552.076 456.432Z"/><path fill="#AB2D2D" d="M971.396 463.25C971.573 465.601 971.854 468.339 971.842 470.662C972.448 472.133 972.143 472.484 973.686 472.943C992.44 478.52 1011.58 482.657 1030.73 486.623C1030.79 492.412 1030.89 498.2 1031.05 503.987L971.376 496.034C971.475 487.941 971.471 479.847 971.366 471.754L971.396 463.25Z"/><path fill="#3A142B" d="M930.058 467.324C941.262 467.328 960.1 469.884 971.366 471.754C971.471 479.847 971.475 487.941 971.376 496.034C964.644 494.666 930.679 492.946 927.926 491.783L928.922 491.674C931.031 489.283 930.116 471.757 930.058 467.324Z"/><path fill="#184B75" d="M543.947 403.577C544.966 424.207 543.617 445.842 545.009 466.639C545.223 469.826 545.11 479.026 545.972 481.648C555.706 477.642 559.229 476.22 570.162 475.707C571.121 469.867 570.579 456.073 572.103 452.116C572.674 464.29 572.085 480.941 571.963 493.336C562.771 493.895 553.139 495.245 543.961 496.378L543.947 403.577Z"/><path fill="#050B22" d="M594.598 638.727L592.71 637.78C594.841 636.155 640.435 637.641 647.342 637.669L851.156 637.65C868.634 637.68 886.113 637.603 903.59 637.419C914.173 637.264 931.429 636.315 941.442 637.742C938.816 638.708 935.558 638.541 932.681 638.615C922.87 639.062 908.44 638.552 898.337 638.529L829.366 638.458L594.598 638.727Z"/><path fill="white" d="M644.393 370.688C645.799 379.368 648.305 376.992 654.31 383.322C651.93 386.758 646.192 386.358 645.756 388.637C645.294 391.049 646.604 401.259 645.509 403.365C644.989 401.232 644.455 398.52 643.558 396.575C641.115 393.66 643.25 389.912 639.231 385.716C633.04 382.101 628.592 382.992 626.272 380.273C625.978 380.318 643.282 375.23 641.514 376.278C642.271 373.67 642.524 372.671 644.393 370.688Z"/><path fill="#6BDFED" d="M638.791 332.524L638.47 345C634.068 345.957 629.761 348.202 625.647 350.117L625.562 337.676C630.555 335.97 633.948 334.783 638.791 332.524Z"/><path fill="white" d="M638.47 345L645.495 344.909C646.834 350.589 647.045 351.843 645.019 357.468C641.201 355.533 636.592 355.111 634.867 351.257C635.361 348.427 636.662 347.265 638.47 345Z"/><path fill="white" d="M637.43 432.279C639.712 428.027 639.42 425.209 644.517 426.041C647.475 431.72 648.716 432.333 644.892 437.82L637.43 432.279Z"/><path fill="#9C6757" d="M625.943 390.469C625.978 387.068 626.088 383.669 626.272 380.273C628.592 382.992 633.04 382.101 639.231 385.716L625.943 390.469Z"/><path fill="#184B75" d="M808.817 440.567L814.012 439.57C814.084 443.145 814.56 446.871 812.827 449.887L811.53 450.869C808.143 448.399 808.912 444.595 808.817 440.567Z"/><defs><linearGradient id="gradient_18" gradientUnits="userSpaceOnUse" x1="934.35876" y1="613.27484" x2="936.87537" y2="515.61499"><stop offset="0" stop-color="#D2F0F1"/><stop offset="1" stop-color="white"/></linearGradient></defs><path fill="url(#gradient_18)" d="M891.621 513.052C899.065 513.93 907.882 514.237 915.464 514.676C924.659 531.296 942.086 550.417 952.435 569.023L952.358 518.043C961.538 518.889 970.712 519.807 979.878 520.799C980.151 529.872 981.219 613.402 979.356 616.113C971.883 615.405 963.906 614.812 956.573 613.446C943.806 597.342 930.573 576.724 919.712 559.237C920.132 576.376 920.28 593.519 920.156 610.662L891.141 608.248C891.09 576.515 891.249 544.783 891.621 513.052Z"/><defs><linearGradient id="gradient_19" gradientUnits="userSpaceOnUse" x1="603.29895" y1="612.04614" x2="592.29669" y2="517.0553"><stop offset="0" stop-color="#D2EFF1"/><stop offset="1" stop-color="white"/></linearGradient></defs><path fill="url(#gradient_19)" d="M643.232 513.519C643.86 513.424 643.448 513.43 644.422 513.845C641.632 519.551 615.473 554.335 610.381 560.458C615.726 566.243 622.116 576.161 626.713 582.832C632.832 591.649 639.053 600.395 645.375 609.068C634.397 609.398 621.153 610.447 610.161 611.317C605.201 601.803 595.563 587.76 589.59 577.447L581.462 585.054C581.666 593.849 581.47 603.322 581.453 612.169C578.494 614.587 558.032 615.466 552.739 615.851C552.613 584 552.709 552.148 553.028 520.298C562.62 519.651 572.19 518.71 581.724 517.478L581.908 556.454C587.613 546.727 602.455 525.086 609.281 515.723C620.52 515.266 631.997 514.336 643.232 513.519Z"/><defs><linearGradient id="gradient_20" gradientUnits="userSpaceOnUse" x1="1031.6292" y1="623.59717" x2="1039.0767" y2="527.00677"><stop offset="0" stop-color="#D4F0F2"/><stop offset="1" stop-color="white"/></linearGradient></defs><path fill="url(#gradient_20)" d="M1000.27 522.622C1009.6 524.249 1022.09 525.214 1031.73 526.32C1044.44 527.884 1057.12 529.643 1069.77 531.595C1069.73 538.849 1070.04 546.624 1070.2 553.917C1057.38 552.931 1041.82 550.549 1028.83 548.921L1028.6 562.399L1066.04 567.202C1065.96 574.436 1066.26 581.969 1066.46 589.227C1054.59 587.934 1041.8 585.986 1029.92 584.373L1029.23 585.044C1028.44 588.489 1028.84 595.745 1028.9 599.58L1071.3 604.9L1071.33 628.144C1052.77 627.314 1019.38 621.426 1000.12 618.579C999.709 586.595 999.76 554.606 1000.27 522.622Z"/><defs><linearGradient id="gradient_21" gradientUnits="userSpaceOnUse" x1="506.67319" y1="621.68256" x2="484.90359" y2="527.92871"><stop offset="0" stop-color="#D2EFF1"/><stop offset="1" stop-color="white"/></linearGradient></defs><path fill="url(#gradient_21)" d="M514.173 523.96C520.648 523.677 526.345 523.908 532.813 524.14L532.582 545.961C525.024 545.783 495.278 545.944 489.284 550.97C488.046 552.008 487.155 554.837 487.532 556.187C491.016 568.674 519.582 556.039 530.604 568.132C535.896 573.126 537.385 579.082 537.883 586.34C540.179 619.822 506.003 626.122 480.396 626.604C473.039 626.525 466.952 626.488 459.654 625.706C459.721 618.414 459.918 611.123 460.246 603.838C469.418 603.437 499.469 602.802 506.78 597.252C508.113 596.24 509.226 593.277 508.949 592.136C505.921 579.683 476.802 592.09 465.54 578.888C460.915 574.218 459.168 568.837 459.112 562.127C458.827 527.53 488.06 524.855 514.173 523.96Z"/><defs><linearGradient id="gradient_22" gradientUnits="userSpaceOnUse" x1="695.11414" y1="604.91772" x2="692.89539" y2="511.33978"><stop offset="0" stop-color="#D3F0F2"/><stop offset="1" stop-color="white"/></linearGradient></defs><path fill="url(#gradient_22)" d="M725.07 509.748L736.711 509.576C736.727 513.714 736.994 528.469 735.847 531.198C730.17 544.696 717.354 562.64 709.746 575.465C710.023 585.677 710.045 595.894 709.81 606.107C700.116 606.465 690.418 606.702 680.719 606.818C680.502 581.706 685.077 580.052 671.357 558.661C664.218 547.278 654.112 531.819 649.543 519.578C650.693 516.882 652.016 514.566 653.417 512.004C662.808 511.682 672.197 511.307 681.584 510.879C683.033 529.347 687.288 535.234 695.685 550.974C704.771 529.361 707.578 538.337 707.385 510.149L725.07 509.748Z"/><defs><linearGradient id="gradient_23" gradientUnits="userSpaceOnUse" x1="791.69586" y1="608.19098" x2="778.16101" y2="507.883"><stop offset="0" stop-color="#D1EFF0"/><stop offset="1" stop-color="white"/></linearGradient></defs><path fill="url(#gradient_23)" d="M754.096 509.58L782.991 509.432L783.069 582.142L825.794 582.716L825.866 606.055C801.832 605.402 777.79 605.143 753.748 605.279C753.749 573.937 753.411 540.859 754.096 509.58Z"/><defs><linearGradient id="gradient_24" gradientUnits="userSpaceOnUse" x1="864.0307" y1="606.14001" x2="848.2193" y2="510.88269"><stop offset="0" stop-color="#D1EFF1"/><stop offset="1" stop-color="white"/></linearGradient></defs><path fill="url(#gradient_24)" d="M841.982 510.657C851.584 511.11 861.191 511.459 870.801 511.704C870.725 521.893 871.508 604.697 869.833 606.96C860.673 606.927 851.075 606.392 841.888 606.016L841.982 510.657Z"/><path fill="#184B75" d="M535.398 443.234L535.432 452.013L535.441 464.126C531.477 465.658 527.541 467.261 523.634 468.934L523.462 456.816L523.436 447.551C527.389 446.405 531.529 444.715 535.398 443.234Z"/><path fill="#6BDFED" d="M535.398 443.234L535.432 452.013C530.46 453.495 528.133 454.602 523.462 456.816L523.436 447.551C527.389 446.405 531.529 444.715 535.398 443.234Z"/><path fill="#184B75" d="M1079.99 640.303C1082.13 635.679 1085.26 632.119 1090.67 633.802C1095.06 637.759 1094.25 641.408 1093.97 646.91C1087.88 650.38 1078.73 653.235 1075.43 644.403L1076.16 643.054L1078.07 642.638L1079.99 640.303Z"/><path fill="#2B88AE" d="M1079.99 640.303C1082.17 638.749 1082.18 638.166 1084.47 638.245C1086.85 640.26 1087.51 640.671 1088.77 643.604C1088.53 646.358 1088.99 645.365 1087.05 647.329C1082.94 648.934 1080.05 647.744 1078.07 643.828L1078.07 642.638L1079.99 640.303Z"/><path fill="#D5F2F4" d="M615.534 345.864L615.922 346.169C616.939 348.137 616.483 356.133 616.45 358.855C613.069 359.851 608.077 361.878 604.643 363.146L604.078 362.687C603.199 360.331 603.556 353.511 603.581 350.631C607.927 349.133 611.342 347.685 615.534 345.864Z"/><path fill="#4AC2DD" d="M582.197 362.812C582.293 360.549 582.158 360.189 583.376 358.406C587.102 356.17 590.584 353.943 595.131 354.697L595.912 357.348C595.405 368.544 591.938 367.176 582.207 370.629C582.251 368.664 582.459 364.587 582.197 362.812Z"/><path fill="#D5F2F4" d="M582.197 362.812C582.293 360.549 582.158 360.189 583.376 358.406C587.102 356.17 590.584 353.943 595.131 354.697L595.912 357.348C592.894 362.691 587.933 362.22 582.197 362.812Z"/><path fill="#4AC2DD" d="M594.442 327.143L594.93 327.533C595.733 329.757 595.381 335.893 595.34 338.604C591.298 339.637 586.844 341.537 582.913 343.084C582.215 340.783 582.176 334.172 582.078 331.413C586.942 330.173 589.85 328.995 594.442 327.143Z"/><path fill="#6BDFED" d="M637.459 413.435C638.775 415.709 638.364 422.281 638.407 425.447C634.641 426.526 630.228 428.097 626.442 429.33C624.92 427.721 625.553 420.669 625.604 418.014C629.722 416.851 633.528 415.113 637.459 413.435Z"/><path fill="#4AC2DD" d="M615.056 319.545L615.986 319.841C616.853 322.252 616.486 327.883 616.437 330.741L605.187 335.332L604.169 335.225C603.262 333.061 603.658 326.71 603.701 323.986C607.037 322.974 611.718 320.904 615.056 319.545Z"/><path fill="#6BDFED" d="M636.862 311.439C638.162 313.187 637.68 321.141 637.67 323.857L626.501 327.952C625.072 326.439 625.773 318.27 625.84 315.71C629.479 314.53 633.293 312.89 636.862 311.439Z"/><path fill="#6BDFED" d="M514.246 430.662L515.435 430.879C516.28 433.236 515.885 438.373 515.816 441.11C512.211 442.065 507.049 444.273 503.446 445.688L502.437 445.472C501.575 443.824 502.241 437.258 502.368 434.959C505.918 433.872 510.66 431.972 514.246 430.662Z"/><path fill="#4AC2DD" d="M614.863 421.735C616.374 422.947 615.89 430.749 615.882 432.984L605.144 437.016L604.967 436.9C603.782 435.105 604.322 427.65 604.365 425.007C607.604 424.135 611.595 422.758 614.863 421.735Z"/><path fill="#6BDFED" d="M534.346 423.133L534.876 423.215C535.925 424.891 535.546 431.407 535.53 433.816L524.675 437.934L524.182 437.853C523.174 436.341 523.481 429.542 523.475 427.259C527.962 426.007 530.066 425.075 534.346 423.133Z"/><path fill="#19243D" d="M591.286 379.028C592.991 378.885 592.963 378.909 594.648 379.255C596.071 381.928 595.473 383.698 595.41 387.102C592.212 387.936 588.633 389.585 585.542 390.897C584.302 391.564 584.311 391.433 582.881 391.268C581.743 388.7 582.224 384.414 582.33 381.398L591.286 379.028Z"/><path fill="#E53E3C" d="M614.567 382.585L615.593 382.869C616.369 385.273 615.741 390.782 615.562 393.596C612.126 394.295 608.922 395.195 605.544 396.115L605.048 395.678C603.87 392.623 603.994 389.235 603.843 385.9C607.413 385.045 611.07 383.748 614.567 382.585Z"/><path fill="white" d="M454.481 638.971C457.64 638.571 460.941 641.773 463.332 643.63L456.624 648.804C453.185 648.944 449.922 646.76 449.505 643.158C451.143 640.331 451.33 640.841 454.481 638.971Z"/><path fill="#050B22" d="M770.345 181.754C770.6 178.206 770.847 175.771 771.432 172.268C785.871 181.722 802.109 193.805 816.246 203.98L816.596 222.821L817.005 225.331L835.232 234.949L834.874 242.974L832.372 241.977C820.151 238.465 797.299 224.648 784.793 219.211C780.963 217.547 774.341 213.527 770.488 212.604C752.412 222.108 728.584 231.008 711.348 241.337C708.122 239.609 706.462 239.346 706.35 235.346C708.703 230.762 718.774 227.131 723.838 224.836C724.92 222.462 724.426 207.904 724.384 204.129C736.226 196.852 757.095 180.895 767.984 172.224C771.273 175.096 769.935 177.589 770.345 181.754Z"/><path fill="#047EA1" d="M770.345 181.754C770.6 178.206 770.847 175.771 771.432 172.268C785.871 181.722 802.109 193.805 816.246 203.98L816.596 222.821L817.005 225.331C810.357 222.492 803.706 219.504 797.088 216.58C789.214 212.402 778.335 208.357 770.924 203.297C769.681 202.448 770.049 200.877 770.04 199.241C770.841 195.184 770.44 186.219 770.345 181.754Z"/><path fill="#D5F2F4" d="M770.04 199.241C778.222 202.195 812.803 222.156 816.596 222.821L817.005 225.331C810.357 222.492 803.706 219.504 797.088 216.58C789.214 212.402 778.335 208.357 770.924 203.297C769.681 202.448 770.049 200.877 770.04 199.241Z"/><path fill="#047EA1" d="M728.513 222.049C738.701 215.15 758.403 205.994 770.04 199.241C770.049 200.877 769.681 202.448 770.924 203.297C778.335 208.357 789.214 212.402 797.088 216.58C803.706 219.504 810.357 222.492 817.005 225.331L835.232 234.949L834.874 242.974L832.372 241.977C820.151 238.465 797.299 224.648 784.793 219.211C780.963 217.547 774.341 213.527 770.488 212.604L769.938 205.377L769.805 204.818L768.656 204.411L765.144 206.199C761.638 211.156 757.129 213.11 751.719 215.816L743.096 216.343C738.777 218.108 732.612 221.372 728.513 222.049Z"/><path fill="#092243" d="M769.938 205.377C776.696 211.509 809.694 226.959 819.311 231.517C823.731 234.243 830.445 237.396 832.372 241.977C820.151 238.465 797.299 224.648 784.793 219.211C780.963 217.547 774.341 213.527 770.488 212.604L769.938 205.377Z"/><path fill="#2B88AE" d="M797.088 216.58C803.706 219.504 810.357 222.492 817.005 225.331L835.232 234.949L834.874 242.974L832.372 241.977C830.445 237.396 823.731 234.243 819.311 231.517C813.168 223.604 800.775 225.432 797.088 216.58Z"/><path fill="#092243" d="M765.144 206.199C761.638 211.156 757.129 213.11 751.719 215.816L743.096 216.343C750.277 212.771 757.811 209.489 765.144 206.199Z"/><path fill="#19243D" d="M743.096 216.343L751.719 215.816C745.774 218.683 740.588 221.075 734.486 223.587C731.487 223.273 730.49 223.707 728.513 222.049C732.612 221.372 738.777 218.108 743.096 216.343Z"/><path fill="#092243" d="M767.984 172.224C767.154 166.104 768.737 122.323 769.904 115.695C771.676 119.741 772.514 167.125 771.432 172.268C770.847 175.771 770.6 178.206 770.345 181.754C769.935 177.589 771.273 175.096 767.984 172.224Z"/></svg>