<?xml version="1.0" encoding="utf-8" ?><svg xmlns="http://www.w3.org/2000/svg" xmlns:xlink="http://www.w3.org/1999/xlink" width="1024" height="1024" viewBox="0 0 1024 1024"><path fill="#7D91A0" d="M0 0L1024 0L1024 1024L0 1024L0 0Z"/><path fill="#E95A35" d="M163.76 433.605C169.782 430.237 180.608 425.787 187.115 422.89C200.786 416.688 214.504 410.592 228.269 404.602L348.708 350.829L539.329 265.487C557.117 257.431 574.948 249.467 592.82 241.596C603.681 236.705 614.598 231.674 625.533 226.984C631.494 224.427 636.53 223.165 643.003 223.341C648.162 223.481 653.337 224.415 658.159 226.324C672.561 232.024 686.727 238.654 700.947 244.744L803.039 289.264L875.622 321.026C888.343 326.568 901.524 332.214 914.113 338.121C917.009 339.479 921.848 344.574 924.126 346.901C925.414 349.321 925.675 349.859 926.351 352.502C926.401 358.505 926.745 371.481 926.09 377.252C926.498 391.436 926.488 420.206 925.419 433.704C925.542 438.631 925.545 443.559 925.426 448.486C925.808 458.044 925.448 469.237 925.365 478.913C936.728 484.363 948.207 490.154 959.409 495.841C978.047 505.303 980.257 517.591 961.379 528.583C948.089 536.321 934.334 544.139 920.938 551.809L847.918 593.719L616.264 726.903L515.407 785.1C501.52 793.129 486.815 801.955 472.94 809.748C453.616 820.601 416.172 819.673 397.548 807.782C386.147 800.503 374.775 793.091 363.438 785.936L279.676 733.217L159.3 657.503L119.449 632.493C106.835 624.547 76.684 610.983 102.158 593.277C111.415 586.843 124.4 582.857 134.317 577.218C139.748 574.539 146.053 571.188 151.518 568.977C151.442 561.875 151.471 554.772 151.606 547.671C150.83 524.609 151.353 495.285 151.47 471.981C150.884 464.945 151.055 455.213 151.113 448.068C152.505 441.137 158.235 437.358 163.76 433.605Z"/><defs><linearGradient id="gradient_0" gradientUnits="userSpaceOnUse" x1="646.20642" y1="474.24448" x2="718.22369" y2="641.7077"><stop offset="0" stop-color="#852216"/><stop offset="1" stop-color="#AB2E1B"/></linearGradient></defs><path fill="url(#gradient_0)" d="M891.006 334.046C901.065 337.539 920.066 341.746 921.217 354.377C921.893 351.795 923.293 350.058 924.126 346.901C925.414 349.321 925.675 349.859 926.351 352.502C926.401 358.505 926.745 371.481 926.09 377.252C926.498 391.436 926.488 420.206 925.419 433.704C925.542 438.631 925.545 443.559 925.426 448.486C925.808 458.044 925.448 469.237 925.365 478.913C936.728 484.363 948.207 490.154 959.409 495.841C978.047 505.303 980.257 517.591 961.379 528.583C948.089 536.321 934.334 544.139 920.938 551.809L847.918 593.719L616.264 726.903L515.407 785.1C501.52 793.129 486.815 801.955 472.94 809.748C453.616 820.601 416.172 819.673 397.548 807.782C386.147 800.503 374.775 793.091 363.438 785.936L279.676 733.217L159.3 657.503L119.449 632.493C106.835 624.547 76.684 610.983 102.158 593.277C111.415 586.843 124.4 582.857 134.317 577.218C139.748 574.539 146.053 571.188 151.518 568.977C151.551 577.453 151.486 586.124 151.64 594.582C151.521 599.244 151.099 601.573 154.299 605.58C155.39 606.945 160.485 609.753 162.037 610.162C169.612 611.938 172.114 615.402 176.413 616.261C192.149 625.427 207.593 635.035 223.236 644.32C228.66 647.539 237.677 653.12 243.167 655.743C247.632 659.243 257.322 664.031 260.393 666.664C264.106 668.894 268.684 671.814 272.585 673.435C279.766 677.582 289.02 682.787 295.857 687.256L302.895 691.11C316.793 699.624 332.09 708.519 346.253 716.831C363.396 727.161 380.605 737.382 397.878 747.492C404.587 751.431 413.607 757.735 420.601 760.601C424.033 762.007 439.746 764.78 442.656 764.104C452.559 761.805 476.958 750.015 485.044 743.763C481.437 743.979 478.87 745.661 475.603 747.007C467.084 750.357 455.512 756.52 446.223 754.441C433.589 751.615 436.871 736.374 432.363 729.885C431.176 725.131 431.478 716.457 431.48 711.302L432.215 713.367C433.066 710.31 432.589 695.02 432.92 690.49C433.163 684.52 432.964 677.598 433.057 671.509C433.368 657.748 433.583 643.984 433.701 630.22C434.195 592.392 430.322 601.216 463.307 584.758C487.582 572.534 511.997 560.589 536.547 548.926C545.33 544.724 554.089 540.474 562.825 536.177C568.102 533.577 575.789 529.994 580.35 526.617L580.946 526.17C580.961 526.148 583.007 524.121 583.074 524.051C588.665 518.233 588.536 516.981 588.429 509.455C590.593 502.258 597.134 499.691 603.803 497.212C606.234 496.308 606.772 496.435 609.002 497.617C610.203 498.732 611.696 499.894 613.42 499.283C618.54 497.471 623.588 494.841 628.485 492.499C639.927 487.023 651.342 481.489 662.728 475.898C692.976 461.101 723.142 446.139 753.224 431.01C770.262 422.454 787.363 413.725 804.278 404.914C807.145 403.421 811.094 401.251 812.803 398.533C814.446 393.891 821.409 389.421 826.029 393.267L826.251 393.694C832.124 389.787 839.242 386.336 845.534 382.992C858.898 375.89 872.41 369.277 885.668 361.938C891.185 359.277 905.131 353.332 907.415 348.237C907.361 341.943 893.996 338.57 891.006 334.046Z"/><path fill="#3B4E62" d="M925.419 433.704C925.542 438.631 925.545 443.559 925.426 448.486C925.808 458.044 925.448 469.237 925.365 478.913C936.728 484.363 948.207 490.154 959.409 495.841C978.047 505.303 980.257 517.591 961.379 528.583C948.089 536.321 934.334 544.139 920.938 551.809L847.918 593.719L616.264 726.903L515.407 785.1C501.52 793.129 486.815 801.955 472.94 809.748C453.616 820.601 416.172 819.673 397.548 807.782C386.147 800.503 374.775 793.091 363.438 785.936L279.676 733.217L159.3 657.503L119.449 632.493C106.835 624.547 76.684 610.983 102.158 593.277C111.415 586.843 124.4 582.857 134.317 577.218C139.748 574.539 146.053 571.188 151.518 568.977C151.551 577.453 151.486 586.124 151.64 594.582C151.521 599.244 151.099 601.573 154.299 605.58C155.39 606.945 160.485 609.753 162.037 610.162C169.612 611.938 172.114 615.402 176.413 616.261C192.149 625.427 207.593 635.035 223.236 644.32C228.66 647.539 237.677 653.12 243.167 655.743C247.632 659.243 257.322 664.031 260.393 666.664C264.106 668.894 268.684 671.814 272.585 673.435C279.766 677.582 289.02 682.787 295.857 687.256L302.895 691.11C316.793 699.624 332.09 708.519 346.253 716.831C363.396 727.161 380.605 737.382 397.878 747.492C404.587 751.431 413.607 757.735 420.601 760.601C424.033 762.007 439.746 764.78 442.656 764.104C452.559 761.805 476.958 750.015 485.044 743.763C496.604 738.033 508.051 732.077 519.377 725.897C525.235 723.218 534.092 718.18 539.969 715.085C545.791 711.667 552.525 708.161 558.532 704.982C563.35 703.258 600.476 682.933 605.326 679.393C607.198 678.256 609.518 677.161 611.473 676.117C624.414 669.209 637.058 661.812 650.131 655.151C651.807 654.016 652.638 653.653 654.494 652.788C659.806 649.178 671.37 643.288 677.338 640.041L716.432 618.674L721.941 618.761C731.344 612.682 747.836 605.923 756.419 599.809C757.938 598.06 758.297 597.889 758.567 595.712C783.324 581.471 809.659 567.696 834.78 553.755C841.479 554.041 841.556 549.595 847.054 549.778C849.279 548.94 851.854 547.445 853.951 546.258C872.99 535.482 892.336 525.107 911.315 514.243C917.149 511.909 921.274 509.656 925.063 504.699C924.834 501.983 924.914 498.938 924.912 496.188L924.328 497.593L924.64 497.223C923.873 496.56 924.094 483.789 923.918 481.397C923.833 472.169 923.833 462.941 923.919 453.713C924.127 451.032 924.665 435.036 925.419 433.704Z"/><path fill="#223444" d="M911.315 514.243C917.149 511.909 921.274 509.656 925.063 504.699C926.373 515.856 917.554 518.588 909.282 523.437C899.455 529.198 889.206 534.45 879.207 539.914C860.437 550.36 841.613 560.708 822.735 570.957L580.952 703.83L524.071 735.34C517.386 739.025 510.4 742.415 503.797 746.195C489.36 754.459 474.728 762.598 460.066 770.484C448.497 776.708 422.603 778.185 410.939 771.476C400.517 765.481 389.518 758.42 379.213 752.163L311.088 710.889L188.304 637.072C181.116 632.732 153.088 617.063 149.06 612.79C146.961 610.562 145.737 607.686 145.97 604.597C146.275 600.557 148.771 597.249 151.64 594.582C151.521 599.244 151.099 601.573 154.299 605.58C155.39 606.945 160.485 609.753 162.037 610.162C169.612 611.938 172.114 615.402 176.413 616.261C192.149 625.427 207.593 635.035 223.236 644.32C228.66 647.539 237.677 653.12 243.167 655.743C247.632 659.243 257.322 664.031 260.393 666.664C264.106 668.894 268.684 671.814 272.585 673.435C279.766 677.582 289.02 682.787 295.857 687.256L302.895 691.11C316.793 699.624 332.09 708.519 346.253 716.831C363.396 727.161 380.605 737.382 397.878 747.492C404.587 751.431 413.607 757.735 420.601 760.601C424.033 762.007 439.746 764.78 442.656 764.104C452.559 761.805 476.958 750.015 485.044 743.763C496.604 738.033 508.051 732.077 519.377 725.897C525.235 723.218 534.092 718.18 539.969 715.085C545.791 711.667 552.525 708.161 558.532 704.982C563.35 703.258 600.476 682.933 605.326 679.393C607.198 678.256 609.518 677.161 611.473 676.117C624.414 669.209 637.058 661.812 650.131 655.151C651.807 654.016 652.638 653.653 654.494 652.788C659.806 649.178 671.37 643.288 677.338 640.041L716.432 618.674L721.941 618.761C731.344 612.682 747.836 605.923 756.419 599.809C757.938 598.06 758.297 597.889 758.567 595.712C783.324 581.471 809.659 567.696 834.78 553.755C841.479 554.041 841.556 549.595 847.054 549.778C849.279 548.94 851.854 547.445 853.951 546.258C872.99 535.482 892.336 525.107 911.315 514.243Z"/><path fill="#2F0603" d="M605.326 679.393C607.198 678.256 609.518 677.161 611.473 676.117C624.414 669.209 637.058 661.812 650.131 655.151L647.68 659.379C636.686 666.336 619.04 675.222 607.032 681.809L540.003 718.873C538.575 719.967 533.238 722.72 531.449 723.698L513.969 733.252C500.464 740.844 486.875 748.288 473.207 755.582C463.187 760.907 454.741 765.931 443.781 769.142C428.847 773.516 420.021 765.932 408.14 758.784L374.02 737.983L331.074 712.023C325.758 708.822 314.445 702.51 310.109 699.297C307.719 698.057 305.413 696.663 303.116 695.261C289.988 687.247 276.434 679.844 263.622 671.325C262.348 670.031 261.362 668.23 260.393 666.664C264.106 668.894 268.684 671.814 272.585 673.435C279.766 677.582 289.02 682.787 295.857 687.256L302.895 691.11C316.793 699.624 332.09 708.519 346.253 716.831C363.396 727.161 380.605 737.382 397.878 747.492C404.587 751.431 413.607 757.735 420.601 760.601C424.033 762.007 439.746 764.78 442.656 764.104C452.559 761.805 476.958 750.015 485.044 743.763C496.604 738.033 508.051 732.077 519.377 725.897C525.235 723.218 534.092 718.18 539.969 715.085C545.791 711.667 552.525 708.161 558.532 704.982C563.35 703.258 600.476 682.933 605.326 679.393Z"/><path fill="#260705" d="M162.037 610.162C169.612 611.938 172.114 615.402 176.413 616.261C192.149 625.427 207.593 635.035 223.236 644.32C228.66 647.539 237.677 653.12 243.167 655.743C247.632 659.243 257.322 664.031 260.393 666.664C261.362 668.23 262.348 670.031 263.622 671.325C252.246 665.759 232.451 652.616 221.102 645.766L181.736 622.001C175.492 618.246 167.941 614.112 162.037 610.162Z"/><path fill="#260705" d="M834.78 553.755C841.479 554.041 841.556 549.595 847.054 549.778C845.434 551.18 842.237 552.794 840.225 553.822C812.127 568.182 784.543 585.811 756.419 599.809C757.938 598.06 758.297 597.889 758.567 595.712C783.324 581.471 809.659 567.696 834.78 553.755Z"/><path fill="#260705" d="M654.494 652.788C659.806 649.178 671.37 643.288 677.338 640.041L716.432 618.674L721.941 618.761L681.616 640.844C678.835 642.379 664.318 650.542 662.062 651.335C658.275 653.866 651.8 657.289 647.68 659.379L650.131 655.151C651.807 654.016 652.638 653.653 654.494 652.788Z"/><path fill="#040201" d="M925.419 433.704C925.542 438.631 925.545 443.559 925.426 448.486C924.181 460.93 925.153 482.841 924.912 496.188L924.328 497.593L924.64 497.223C923.873 496.56 924.094 483.789 923.918 481.397C923.833 472.169 923.833 462.941 923.919 453.713C924.127 451.032 924.665 435.036 925.419 433.704Z"/><defs><linearGradient id="gradient_1" gradientUnits="userSpaceOnUse" x1="704.97449" y1="577.73914" x2="722.1156" y2="649.92889"><stop offset="0" stop-color="#6C1910"/><stop offset="1" stop-color="#9B2D1A"/></linearGradient></defs><path fill="url(#gradient_1)" d="M603.245 660.455C603.191 662.563 603.021 663.328 604.18 664.759C605.175 665.144 606.111 665.312 607.146 664.924C612.475 662.931 617.916 660.505 623.266 658.601C653.398 647.873 681.509 632.725 709.728 617.809C719.103 612.854 733.231 607.047 741.665 600.612C749.04 594.18 751.17 584.129 756.197 576.076C761.123 568.184 768.418 563.788 776.987 560.683C783.06 558.482 789.723 556.747 796.264 557.316C802.796 557.884 809.064 560.259 815.712 559.28C824.04 558.322 830.749 552.501 838.496 550.802C837.259 551.799 836.045 552.792 834.78 553.755C809.659 567.696 783.324 581.471 758.567 595.712C758.297 597.889 757.938 598.06 756.419 599.809C747.836 605.923 731.344 612.682 721.941 618.761L716.432 618.674L677.338 640.041C671.37 643.288 659.806 649.178 654.494 652.788C652.638 653.653 651.807 654.016 650.131 655.151C637.058 661.812 624.414 669.209 611.473 676.117C609.518 677.161 607.198 678.256 605.326 679.393C602.358 677.916 601.079 677.632 600.244 674.061C599.145 669.358 600.893 664.47 603.245 660.455Z"/><path fill="#2F0603" d="M716.432 618.674C730.361 610.809 744.408 603.154 758.567 595.712C758.297 597.889 757.938 598.06 756.419 599.809C747.836 605.923 731.344 612.682 721.941 618.761L716.432 618.674Z"/><path fill="#E95A35" d="M609.002 497.617C610.203 498.732 611.696 499.894 613.42 499.283C618.54 497.471 623.588 494.841 628.485 492.499C639.927 487.023 651.342 481.489 662.728 475.898C692.976 461.101 723.142 446.139 753.224 431.01C770.262 422.454 787.363 413.725 804.278 404.914C807.145 403.421 811.094 401.251 812.803 398.533C814.001 401.286 815.497 405.455 814.586 408.479C804.786 413.219 795.333 418.295 785.618 423.146C750.866 440.48 716.252 458.087 681.779 475.967C658.929 487.767 635.798 499.223 612.982 511.118C605.192 515.179 599.123 529.924 588.098 528.537C586.962 526.694 586.877 527.212 587.097 525.522C593.26 518.451 590.779 512.431 596.787 505.968C598.819 503.782 606.12 499.414 609.002 497.617Z"/><path fill="#E95A35" d="M891.006 334.046C901.065 337.539 920.066 341.746 921.217 354.377C918.372 357.427 904.584 363.228 899.559 365.732L852.432 389.22C845.724 392.591 838.621 395.808 832.093 399.422C827.688 407.48 820.499 419.435 814.134 426.044C812.74 427.491 809.19 429.829 807.361 431.249L807.009 429.915L803.046 432.872C807.642 424.543 813.813 419.075 814.586 408.479C815.497 405.455 814.001 401.286 812.803 398.533C814.446 393.891 821.409 389.421 826.029 393.267L826.251 393.694C832.124 389.787 839.242 386.336 845.534 382.992C858.898 375.89 872.41 369.277 885.668 361.938C891.185 359.277 905.131 353.332 907.415 348.237C907.361 341.943 893.996 338.57 891.006 334.046Z"/><path fill="#66170F" d="M812.803 398.533C814.446 393.891 821.409 389.421 826.029 393.267C825.473 396.206 826.599 399.45 825.989 402.415C825.288 405.816 823.577 408.822 821.908 411.813C817.82 419.142 813.716 424.77 807.009 429.915L803.046 432.872C807.642 424.543 813.813 419.075 814.586 408.479C815.497 405.455 814.001 401.286 812.803 398.533Z"/><path fill="#66170F" d="M574.535 677.212C578.634 674.52 585.245 670.964 588.774 668.111C600.535 658.601 607.579 641.239 613.937 627.882C615.078 625.486 618.642 617.521 620.993 616.686C620.995 617.735 615.038 626.727 614.485 629.81C612.386 641.52 608.449 649.843 603.245 660.455C600.893 664.47 599.145 669.358 600.244 674.061C601.079 677.632 602.358 677.916 605.326 679.393C600.476 682.933 563.35 703.258 558.532 704.982C559.412 702.981 563.213 697.9 564.658 695.119C567.948 688.783 570.378 683.012 574.535 677.212Z"/><path fill="#982818" d="M519.377 725.897C521.418 718.51 563.134 693.163 567.455 683.477C568.496 681.141 572.008 678.211 574.535 677.212C570.378 683.012 567.948 688.783 564.658 695.119C563.213 697.9 559.412 702.981 558.532 704.982C552.525 708.161 545.791 711.667 539.969 715.085C534.092 718.18 525.235 723.218 519.377 725.897Z"/><path fill="#751B12" d="M588.429 509.455C590.593 502.258 597.134 499.691 603.803 497.212C606.234 496.308 606.772 496.435 609.002 497.617C606.12 499.414 598.819 503.782 596.787 505.968C590.779 512.431 593.26 518.451 587.097 525.522C586.877 527.212 586.962 526.694 588.098 528.537L588.783 529.618C588.309 533.765 576.256 538.545 572.496 541.775L571.686 541.698C571.923 540.051 579.373 528.902 580.946 526.17C580.961 526.148 583.007 524.121 583.074 524.051C588.665 518.233 588.536 516.981 588.429 509.455Z"/><path fill="#2F0603" d="M838.496 550.802C862.149 539.249 890.854 523.211 914.086 510.229C912.607 511.901 912.153 512.238 911.315 514.243C892.336 525.107 872.99 535.482 853.951 546.258C851.854 547.445 849.279 548.94 847.054 549.778C841.556 549.595 841.479 554.041 834.78 553.755C836.045 552.792 837.259 551.799 838.496 550.802Z"/><path fill="#2F0603" d="M924.049 381.284C924.787 378.728 924.282 374.532 925.52 372.06L926.09 377.252C926.498 391.436 926.488 420.206 925.419 433.704C924.665 435.036 924.127 451.032 923.919 453.713C923.602 451.331 923.56 448.474 923.565 446.042C923.609 424.566 922.988 402.729 924.049 381.284Z"/><path fill="#982818" d="M807.009 429.915L807.361 431.249C801.703 436.29 794.646 441.243 789.512 446.555C787.629 448.503 785.285 455.026 784.053 457.917C780.927 465.258 775.416 469.577 769.486 474.608C771.93 470.685 776.048 467.598 778.813 463.685C782.173 458.93 783.492 452.699 786.095 447.901C788.982 442.579 798.22 437.097 803.046 432.872L807.009 429.915Z"/><path fill="#260705" d="M923.918 481.397C924.094 483.789 923.873 496.56 924.64 497.223L924.328 497.593L924.912 496.188C924.914 498.938 924.834 501.983 925.063 504.699C921.274 509.656 917.149 511.909 911.315 514.243C912.153 512.238 912.607 511.901 914.086 510.229C926.755 502.441 922.775 494.404 923.855 482.081L923.918 481.397Z"/><path fill="#66170F" d="M922.461 356.779C923.847 354.78 924.551 354.207 926.351 352.502C926.401 358.505 926.745 371.481 926.09 377.252L925.52 372.06C924.282 374.532 924.787 378.728 924.049 381.284C924.048 371.459 923.854 366.49 922.461 356.779Z"/><path fill="#E95A35" d="M432.92 690.49C433.026 695.703 433.522 727.19 432.363 729.885C431.176 725.131 431.478 716.457 431.48 711.302L432.215 713.367C433.066 710.31 432.589 695.02 432.92 690.49Z"/><path fill="#66170F" d="M895.347 465.961L895.737 466.247L895.509 466.909C890.282 470.466 884.339 472.859 879.266 476.331C872.394 481.034 872.177 486.737 862.813 487.493C856.895 480.853 872.068 476.352 876.11 474.697C882.65 472.075 889.069 469.16 895.347 465.961Z"/><path fill="#66170F" d="M573.803 591.014C576.036 590.992 576.534 590.85 578.365 591.962C581.001 596.695 572.862 600.919 569.235 602.313C567.121 602.255 566.488 602.259 564.788 601.094C562.594 596.451 570.215 592.265 573.803 591.014Z"/><path fill="#66170F" d="M745.914 545.992C747.993 545.868 748.755 545.91 750.34 547.117C752.019 551.78 744.854 555.868 741.133 557.008C738.729 557.165 737.094 556.991 736.21 554.646C736.864 550.045 741.892 547.241 745.914 545.992Z"/><path fill="#66170F" d="M549.159 644.559C551.821 644.53 553.18 644.342 554.528 646.814C554.154 651.301 549.184 654.308 545.293 655.553C543.112 655.566 541.797 655.555 540.346 653.678C539.997 648.994 545.433 646.054 549.159 644.559Z"/><path fill="#982818" d="M568.871 543.853L569.354 544.42C566.978 550.743 562.266 560.794 556.822 564.786L556.33 564.289C556.721 562.548 561.541 556.809 562.785 554.296C564.336 551.164 566.715 546.312 568.871 543.853Z"/><path fill="#751B12" d="M151.113 448.068C152.066 449.873 151.816 450.116 153.995 450.787C182.68 464.377 211.093 480.535 239.436 494.872C249.154 499.787 267.386 510.154 276.809 513.795C282.523 512.054 286.941 508.784 290.113 507.782L294.015 505.8C297.237 504.072 324.372 493.862 326.299 494.284C324.467 495.159 322.615 495.974 320.968 497.175L321.556 497.752C320.23 499.348 306.365 506.125 303.449 507.612L301.242 507.13C299.837 508.495 298.128 510.264 296.652 511.481C293.771 512.431 287.869 516.218 284.977 517.999L285.678 518.458C293.994 523.849 308.526 530.7 317.851 535.705L392.015 575.381C397.651 578.428 426.969 592.691 427.949 598.303C429.769 608.721 429.167 624.466 429.787 635.441C430.065 660.399 431.69 686.54 431.48 711.302C431.478 716.457 431.176 725.131 432.363 729.885C436.871 736.374 433.589 751.615 446.223 754.441C455.512 756.52 467.084 750.357 475.603 747.007C478.87 745.661 481.437 743.979 485.044 743.763C476.958 750.015 452.559 761.805 442.656 764.104C439.746 764.78 424.033 762.007 420.601 760.601C413.607 757.735 404.587 751.431 397.878 747.492C380.605 737.382 363.396 727.161 346.253 716.831C332.09 708.519 316.793 699.624 302.895 691.11L295.857 687.256C289.02 682.787 279.766 677.582 272.585 673.435C268.684 671.814 264.106 668.894 260.393 666.664C257.322 664.031 247.632 659.243 243.167 655.743C237.677 653.12 228.66 647.539 223.236 644.32C207.593 635.035 192.149 625.427 176.413 616.261C172.114 615.402 169.612 611.938 162.037 610.162C160.485 609.753 155.39 606.945 154.299 605.58C151.099 601.573 151.521 599.244 151.64 594.582C151.486 586.124 151.551 577.453 151.518 568.977C151.442 561.875 151.471 554.772 151.606 547.671C150.83 524.609 151.353 495.285 151.47 471.981C150.884 464.945 151.055 455.213 151.113 448.068Z"/><path fill="#66170F" d="M302.895 691.11C309.895 689.437 324.189 690.394 330.482 694.401C336.143 698.005 346.415 709.918 346.253 716.831C332.09 708.519 316.793 699.624 302.895 691.11Z"/><path fill="#66170F" d="M243.167 655.743C268.815 649.02 263.853 650.272 272.585 673.435C268.684 671.814 264.106 668.894 260.393 666.664C257.322 664.031 247.632 659.243 243.167 655.743Z"/><path fill="#2F0603" d="M151.606 547.671C151.875 551.974 151.928 554.025 152.586 558.251C153.161 556.552 153.454 549.953 153.589 547.783C154.256 556.914 154.811 566.052 155.254 575.196C155.573 582.961 155.49 591.019 156.904 598.645C158.496 607.236 169.626 611.279 176.413 616.261C172.114 615.402 169.612 611.938 162.037 610.162C160.485 609.753 155.39 606.945 154.299 605.58C151.099 601.573 151.521 599.244 151.64 594.582C151.486 586.124 151.551 577.453 151.518 568.977C151.442 561.875 151.471 554.772 151.606 547.671Z"/><path fill="#260705" d="M151.47 471.981C152.622 481.119 152.422 493.627 152.604 503.196C152.885 517.91 153.595 533.114 153.589 547.783C153.454 549.953 153.161 556.552 152.586 558.251C151.928 554.025 151.875 551.974 151.606 547.671C150.83 524.609 151.353 495.285 151.47 471.981Z"/><path fill="#F88660" d="M320.968 497.175L321.556 497.752C320.23 499.348 306.365 506.125 303.449 507.612L301.242 507.13C303.547 505.415 317.554 498.839 320.968 497.175Z"/><path fill="#66170F" d="M180.792 561.267C186.663 561.811 193.308 568.953 188.361 574.69C182.932 573.602 176.187 566.79 180.792 561.267Z"/><path fill="#66170F" d="M402.734 695.216C408.48 696.907 415.452 703.025 410.26 708.935C404.771 707.78 398.583 700.841 402.734 695.216Z"/><path fill="#66170F" d="M309.428 590.352C312.15 593.311 311.528 600.807 311.783 605.192C313.427 607.676 314.679 608.865 316.36 611.125C320.763 617.049 320.524 623.177 320.848 630.148C318.371 625.92 317.944 618.963 316.12 614.456C314.884 611.782 311.087 608.482 310.597 605.614C309.68 600.243 310.782 595.824 309.428 590.352Z"/><path fill="#66170F" d="M282.288 523.394C290.423 532.006 286.483 542.959 295.515 555.093C289.667 552.501 287.366 537.09 285.21 531.255C284.28 528.74 283.212 525.918 282.288 523.394Z"/><path fill="#66170F" d="M307.63 570.833C315.533 572.859 315.106 586.446 316.421 593.123C313.031 590.305 313.797 579.563 311.536 575.574C310.658 574.025 308.848 572.155 307.63 570.833Z"/><path fill="#BB3120" d="M163.76 433.605C169.782 430.237 180.608 425.787 187.115 422.89C200.786 416.688 214.504 410.592 228.269 404.602L348.708 350.829L539.329 265.487C557.117 257.431 574.948 249.467 592.82 241.596C603.681 236.705 614.598 231.674 625.533 226.984C631.494 224.427 636.53 223.165 643.003 223.341C648.162 223.481 653.337 224.415 658.159 226.324C672.561 232.024 686.727 238.654 700.947 244.744L803.039 289.264L875.622 321.026C888.343 326.568 901.524 332.214 914.113 338.121C917.009 339.479 921.848 344.574 924.126 346.901C923.293 350.058 921.893 351.795 921.217 354.377C920.066 341.746 901.065 337.539 891.006 334.046C839.47 311.334 786.642 289.663 735.429 266.567C719.895 259.625 704.428 252.536 689.028 245.302C679.715 240.854 670.51 236.372 661.07 232.187C649.424 227.023 642.323 224.51 629.889 229.802C609.257 238.584 588.977 248.117 568.512 257.282L427.33 321.3L250.713 401.443L199.399 424.935C193.954 427.44 173.649 435.517 171.109 439.833C171.101 440.866 171.102 442.272 172.025 442.932C181.388 449.628 194.437 455.843 204.322 461.301C223.504 472.018 242.755 482.611 262.072 493.081C267.526 496.007 285.665 506.47 290.113 507.782C286.941 508.784 282.523 512.054 276.809 513.795C267.386 510.154 249.154 499.787 239.436 494.872C211.093 480.535 182.68 464.377 153.995 450.787C151.816 450.116 152.066 449.873 151.113 448.068C152.505 441.137 158.235 437.358 163.76 433.605Z"/><path fill="#982818" d="M151.113 448.068C152.505 441.137 158.235 437.358 163.76 433.605C163.242 437.383 158.621 441.302 156.627 444.847C155.339 447.135 154.871 448.292 153.995 450.787C151.816 450.116 152.066 449.873 151.113 448.068Z"/><path fill="#FCB893" d="M290.113 507.782C285.665 506.47 267.526 496.007 262.072 493.081C242.755 482.611 223.504 472.018 204.322 461.301C194.437 455.843 181.388 449.628 172.025 442.932C171.102 442.272 171.101 440.866 171.109 439.833C173.649 435.517 193.954 427.44 199.399 424.935L250.713 401.443L427.33 321.3L568.512 257.282C588.977 248.117 609.257 238.584 629.889 229.802C642.323 224.51 649.424 227.023 661.07 232.187C670.51 236.372 679.715 240.854 689.028 245.302C704.428 252.536 719.895 259.625 735.429 266.567C786.642 289.663 839.47 311.334 891.006 334.046C893.996 338.57 907.361 341.943 907.415 348.237C905.131 353.332 891.185 359.277 885.668 361.938L884.914 360.923C887.418 359.565 890.048 358.206 892.477 356.966C896.031 355.151 901.465 353.402 903.202 349.597C904.884 345.915 899.539 341.253 896.655 339.867C886.404 334.908 875.769 330.693 865.21 326.37L825.768 309.86C814.971 305.28 804.149 300.762 793.301 296.304C788.739 294.444 782.856 291.836 778.127 290.667C774.117 289.676 764.182 291.346 761.124 287.776C759.992 286.454 759.185 282.457 757.509 281.627C748.221 277.077 738.609 273.046 729.065 269.025C710.423 261.172 692.054 252.846 673.139 245.623C661.579 241.208 648.432 233.879 635.759 238.414C629.079 240.805 622.436 244.119 615.856 246.856L582.916 260.262C525.65 284.119 466.123 312.293 409.537 338.2L362.662 359.286C355.977 362.287 348.878 365.151 342.512 368.638C340.962 369.487 337.108 373.724 335.95 375.234C330.3 382.77 320.665 381.645 312.437 382.871C310.149 383.212 306.439 384.469 304.102 385.313C261.435 400.725 220.226 420.229 179.177 439.42C178.048 439.948 177.612 441.089 177.444 442.211C178.712 443.889 180.7 445.539 182.553 446.569C210.675 462.204 239.357 476.873 267.773 491.969C276.226 496.46 286.18 500.471 294.015 505.8L290.113 507.782Z"/><defs><linearGradient id="gradient_2" gradientUnits="userSpaceOnUse" x1="426.50772" y1="477.13351" x2="481.95197" y2="682.51514"><stop offset="0" stop-color="#BA3422"/><stop offset="1" stop-color="#F55D35"/></linearGradient></defs><path fill="url(#gradient_2)" d="M588.429 509.455C588.536 516.981 588.665 518.233 583.074 524.051C583.007 524.121 580.961 526.148 580.946 526.17L580.35 526.617C575.789 529.994 568.102 533.577 562.825 536.177C554.089 540.474 545.33 544.724 536.547 548.926C511.997 560.589 487.582 572.534 463.307 584.758C430.322 601.216 434.195 592.392 433.701 630.22C433.583 643.984 433.368 657.748 433.057 671.509C432.964 677.598 433.163 684.52 432.92 690.49C432.589 695.02 433.066 710.31 432.215 713.367L431.48 711.302C431.69 686.54 430.065 660.399 429.787 635.441C429.167 624.466 429.769 608.721 427.949 598.303C426.969 592.691 397.651 578.428 392.015 575.381L317.851 535.705C308.526 530.7 293.994 523.849 285.678 518.458L284.977 517.999C287.869 516.218 293.771 512.431 296.652 511.481C298.641 513.12 310.842 519.587 313.999 521.315C327.574 528.816 341.202 536.22 354.883 543.527L408.612 572.57C436.523 587.381 433.544 588.201 461.892 573.897C469.197 570.205 476.574 566.657 484.019 563.255L542.041 535.599C556.368 528.738 571.113 521.566 585.062 513.938C588.287 512.174 587.615 512.663 588.429 509.455Z"/><defs><linearGradient id="gradient_3" gradientUnits="userSpaceOnUse" x1="392.18533" y1="615.63623" x2="790.91638" y2="256.92102"><stop offset="0" stop-color="#FE9668"/><stop offset="1" stop-color="#FFB68E"/></linearGradient></defs><path fill="url(#gradient_3)" d="M303.449 507.612C310.466 515.108 331.257 522.88 341.254 527.589C356.522 534.824 371.666 542.316 386.681 550.063C393.5 553.514 399.88 557.015 406.564 560.672C416.378 566.042 431.66 577.269 443.094 573.636C455.103 569.82 467.411 563.968 478.989 559.003C502.149 549.178 525.077 538.811 547.751 527.911C557.151 523.388 566.71 518.786 575.949 513.92C581.154 511.179 583.993 506.235 588.083 502.68C590.44 500.632 598.459 497.294 601.606 495.544C607.178 492.445 615.166 492.97 621.26 490.527C634.649 485.161 648.234 478.696 661.283 472.584C691.409 458.317 721.41 443.788 751.282 428.997C767.818 420.807 790.477 409.912 806.839 400.588C809.375 399.142 812.058 392.949 816.288 391.006C822.265 388.262 827.32 389.693 833.164 387.258C839.095 384.454 845.094 381.27 850.939 378.259C862.214 372.383 873.54 366.605 884.914 360.923L885.668 361.938C872.41 369.277 858.898 375.89 845.534 382.992C839.242 386.336 832.124 389.787 826.251 393.694L826.029 393.267C821.409 389.421 814.446 393.891 812.803 398.533C811.094 401.251 807.145 403.421 804.278 404.914C787.363 413.725 770.262 422.454 753.224 431.01C723.142 446.139 692.976 461.101 662.728 475.898C651.342 481.489 639.927 487.023 628.485 492.499C623.588 494.841 618.54 497.471 613.42 499.283C611.696 499.894 610.203 498.732 609.002 497.617C606.772 496.435 606.234 496.308 603.803 497.212C597.134 499.691 590.593 502.258 588.429 509.455C587.615 512.663 588.287 512.174 585.062 513.938C571.113 521.566 556.368 528.738 542.041 535.599L484.019 563.255C476.574 566.657 469.197 570.205 461.892 573.897C433.544 588.201 436.523 587.381 408.612 572.57L354.883 543.527C341.202 536.22 327.574 528.816 313.999 521.315C310.842 519.587 298.641 513.12 296.652 511.481C298.128 510.264 299.837 508.495 301.242 507.13L303.449 507.612Z"/><path fill="#BB3120" d="M566.214 308.745L565.82 307.314C567.762 303.802 577.085 299.068 580.626 296.392C589.157 289.947 604.128 281.371 612.705 292.227C613.455 293.177 613.049 294.285 612.768 295.227C609.709 298.68 607.865 298.515 604.166 300.055C601.433 301.681 594.626 301.477 591.156 302.406C585.83 303.831 571.153 312.143 566.214 308.745Z"/><path fill="#F88660" d="M566.214 308.745C582.976 305.537 582.884 298.494 604.166 300.055C601.433 301.681 594.626 301.477 591.156 302.406C585.83 303.831 571.153 312.143 566.214 308.745Z"/><path fill="#BB3120" d="M456.911 535.235C449.783 536.932 434.114 554.392 428.216 549.886C426.854 539.391 480.19 525.051 487.694 517.355C492.453 512.475 503.756 506.527 510.737 505.204C506.088 507.291 500.969 509.271 496.829 512.202L497.659 513.495C497.079 514.34 484.69 523.859 483.475 524.685C479.67 527.272 460.6 535.542 456.911 535.235Z"/><path fill="#F88660" d="M456.911 535.235C462.721 531.347 473.536 528.741 479.478 525.476C484.851 522.523 491.282 516.249 496.829 512.202L497.659 513.495C497.079 514.34 484.69 523.859 483.475 524.685C479.67 527.272 460.6 535.542 456.911 535.235Z"/><path fill="#BB3120" d="M453.379 398.103C458.325 396.49 463.491 395.386 467.997 398.068C483.364 407.216 461.769 410.797 454.898 410.672C450.983 410.601 442.267 411.801 441.85 406.722C441.541 403.349 450.633 398.506 453.379 398.103Z"/><path fill="#F88660" d="M441.85 406.722C441.541 403.349 450.633 398.506 453.379 398.103C449.753 400.955 445.047 403.944 441.85 406.722Z"/><path fill="#BB3120" d="M701.057 405.015C706.832 402.603 717.273 401.265 721.909 408.683C722.341 409.375 721.898 410.399 721.711 411.111C716.67 417.573 699.645 418.851 692.5 415.826C691.338 415.334 690.846 413.654 690.547 412.662C690.875 410.074 699.179 404.81 701.057 405.015Z"/><path fill="#F88660" d="M690.547 412.662C690.875 410.074 699.179 404.81 701.057 405.015C699.798 406.779 692.889 411.08 690.547 412.662Z"/><path fill="#BB3120" d="M769.868 328.618C766.415 329.098 752.828 335.453 751.381 329.283C752.18 327.84 751.622 328.33 753.018 327.662C767.051 336.782 782.823 311.469 793.716 320.822C794.504 322.675 794.453 321.752 793.851 323.69C791.486 326.048 789.476 325.741 786.06 326.05C784.051 327.276 774.178 328.555 771.057 329.132L769.868 328.618Z"/><path fill="#F88660" d="M769.868 328.618C776.078 326.117 779.48 325.916 786.06 326.05C784.051 327.276 774.178 328.555 771.057 329.132L769.868 328.618Z"/><path fill="#BB3120" d="M357.406 395.024C366.698 391.362 368.166 388.745 376.05 384.153C380.539 381.538 388.3 380.552 394.105 376.758C397.343 374.642 406.913 366.942 409.349 366.609C409.122 367.055 391.356 381.312 389.206 383.447C384.692 387.932 370.703 389.211 364.969 392.353C363.801 392.993 358.982 395.41 357.672 395.621L357.406 395.024Z"/><path fill="#BB3120" d="M303.239 443.547C305.843 443.401 307.515 443.277 309.586 444.94C311.147 449.078 305.767 451.329 302.714 452.471C301.86 452.601 301.002 452.71 300.142 452.799C298.095 452.992 297.265 452.852 295.653 451.551C294.177 446.961 299.879 444.79 303.239 443.547Z"/><path fill="#BB3120" d="M405.837 477.139C409.549 477.285 412.369 477.125 414.301 480.797C414.153 484.541 411.297 484.668 408.191 485.306C404.34 485.162 401.346 485.393 399.382 481.498C399.756 477.766 402.633 477.586 405.837 477.139Z"/><path fill="#BB3120" d="M647.898 276.583C652.579 276.332 654.959 276.077 658.941 279.224C659.679 280.88 659.675 280.09 659.146 281.665C657.605 283.125 657.364 283.134 655.333 283.932C651.872 284.523 644.111 284.428 644.222 279.582C645.308 277.752 645.925 277.64 647.898 276.583Z"/><path fill="#BB3120" d="M714.811 301.093C717.184 300.978 718.347 300.889 720.262 302.345C721.627 306.612 715.84 308.904 712.699 309.971C709.942 310.136 708.304 310.481 706.591 308.126C706.304 304.111 711.672 301.923 714.811 301.093Z"/><path fill="#BB3120" d="M618.423 392.085C620.508 392.047 622.154 391.936 623.652 393.617C624.024 397.941 618.577 400.113 615.085 400.91C612.996 400.976 611.303 401.068 609.816 399.407C609.481 395.064 614.896 392.877 618.423 392.085Z"/><path fill="#BB3120" d="M481.472 367.879L481.103 366.252C482.252 361.811 490.794 358.397 494.624 362.749L495.386 362.971C495.872 367.184 485.088 370.634 481.472 367.879Z"/><path fill="#F88660" d="M494.624 362.749L495.386 362.971C495.872 367.184 485.088 370.634 481.472 367.879C486.62 367.345 490.414 365.532 494.624 362.749Z"/><path fill="#BB3120" d="M603.523 454.224L604.513 454.396L604.956 455.233C604.643 457.903 602.679 461.491 601.221 463.763C598.789 467.551 598.066 469.237 593.678 470.668C592.344 469.615 592.804 470.25 592.171 468.745C592.65 466.287 601.368 456.456 603.523 454.224Z"/><path fill="#BB3120" d="M281.189 466.331C278.869 466.335 277.409 466.785 276.201 464.656C277.705 460.005 285.758 457.943 289.499 462.365C288.212 465.807 285.416 466.306 282.025 466.68L281.189 466.331Z"/><path fill="#F88660" d="M289.499 462.365C288.212 465.807 285.416 466.306 282.025 466.68L281.189 466.331C284.872 464.932 286.106 464.358 289.499 462.365Z"/><path fill="#BB3120" d="M812.772 337.548C814.508 337.405 815.913 337.281 817.334 338.255L817.421 339.134C816.269 340.687 815.14 340.815 813.279 341.432C811.593 341.8 810.209 342.054 808.732 341.174L808.662 340.219C809.677 338.65 811.018 338.325 812.772 337.548Z"/><path fill="#E95A35" d="M357.672 395.621C356.223 396.4 355.197 397.189 353.601 397.11C354.534 395.834 355.66 395.742 357.406 395.024L357.672 395.621Z"/></svg>