<?xml version="1.0" encoding="utf-8" ?><svg xmlns="http://www.w3.org/2000/svg" xmlns:xlink="http://www.w3.org/1999/xlink" width="1024" height="1024" viewBox="0 0 1024 1024"><path fill="#A0C4C6" d="M0 0L1024 0L1024 1024L0 1024L0 0Z"/><path fill="#333233" d="M389.097 206.005C388.467 195.346 390.951 174.227 395.919 164.398C401.246 153.859 413.395 154.443 423.434 156.568C454.038 163.047 484.612 170.176 515.083 177.422L628.187 203.794L726.197 225.58C742.693 229.191 790.933 237.524 803.559 245.159C808.32 248.039 811.827 252.107 813.113 257.607C815.579 268.155 804.975 294.773 799.441 304.032C808.036 331.565 811.107 341.507 814.169 370.104C829.499 373.278 884.492 390.067 892.01 401.827C893.774 404.586 893.655 407.667 892.859 410.741C890.796 418.714 880.268 436.094 875.765 443.416C872.949 447.996 869.688 452.354 867.946 457.477C865.062 465.96 863.869 475.435 861.833 484.197C858.226 499.709 854.027 515.078 849.247 530.27C844.655 544.692 839.265 559.137 834.064 573.411C814.411 627.358 792.498 681.265 765.737 732.114C754.784 752.928 742.684 772.522 730.099 792.492C719.285 809.653 706.873 835.188 688.683 845.878C676.67 852.939 663.812 854.672 650.219 853.496C637.992 852.437 628.59 850.342 616.575 847.816C603.024 845.004 589.512 842.009 576.041 838.833C539.494 830.468 503.049 821.661 466.714 812.414L325.465 776.127C295.632 768.404 265.224 760.879 235.707 751.934C228.532 749.76 221.385 747.762 214.228 745.586C209.937 744.201 205.507 741.505 201.446 740.223C191.101 736.956 179.569 735.818 190.304 722.469C185.348 721.164 177.893 717.831 173.763 714.695C165.957 708.767 165.505 680.484 168.66 672.903C172.459 663.779 185.862 649.612 193.17 641.89C195.215 630.764 201.583 613.304 205.213 602.198C216.592 567.383 230.909 533.624 244.536 499.619C260.312 459.61 276.45 419.745 292.949 380.029C313.405 331.253 334.165 282.391 365.07 239.277C373.022 228.183 380.157 216.401 389.097 206.005Z"/><path fill="#6695AE" d="M814.169 370.104C829.499 373.278 884.492 390.067 892.01 401.827C893.774 404.586 893.655 407.667 892.859 410.741C890.796 418.714 880.268 436.094 875.765 443.416C872.949 447.996 869.688 452.354 867.946 457.477C865.062 465.96 863.869 475.435 861.833 484.197C858.226 499.709 854.027 515.078 849.247 530.27C844.655 544.692 839.265 559.137 834.064 573.411C814.411 627.358 792.498 681.265 765.737 732.114C754.784 752.928 742.684 772.522 730.099 792.492C719.285 809.653 706.873 835.188 688.683 845.878C676.67 852.939 663.812 854.672 650.219 853.496C637.992 852.437 628.59 850.342 616.575 847.816C603.024 845.004 589.512 842.009 576.041 838.833C539.494 830.468 503.049 821.661 466.714 812.414L325.465 776.127C295.632 768.404 265.224 760.879 235.707 751.934C228.532 749.76 221.385 747.762 214.228 745.586C209.937 744.201 205.507 741.505 201.446 740.223C191.101 736.956 179.569 735.818 190.304 722.469C198.923 725.362 208.135 727.438 216.888 729.949C236.441 735.559 255.968 740.069 275.672 744.897L399.919 775.661C448.801 788.185 497.799 800.257 546.905 811.877C563.528 815.994 580.213 819.862 596.952 823.479C606.511 825.57 615.862 827.618 625.486 829.042C647.649 832.32 659.27 810.673 666.944 793.631C668.453 790.281 670.429 783.993 672.378 780.994C676.164 775.169 680.402 769.608 684.216 763.723C691.882 751.778 698.927 739.446 705.322 726.775C732.101 673.882 749.682 623.104 769.909 567.534C778.222 545.113 786.165 522.556 793.733 499.872C807.851 457.2 818.063 415.552 814.169 370.104Z"/><path fill="#F2EEE8" d="M400.278 173.734C403.493 163.007 410.058 161.654 420.131 163.814C442.454 168.602 464.665 173.891 486.896 179.088L579.715 200.579C596.76 204.564 614.168 208.977 631.172 212.759L735.897 235.754C747.289 238.182 758.662 240.696 770.016 243.298C777.649 244.995 792.512 247.599 799.044 251.297C805.07 254.195 806.578 259.533 806.268 265.885C803.579 275.379 797.779 291.149 793.14 299.79C792.632 301.494 792.02 303.314 791.691 305.044L794.068 312.989C794.514 314.925 794.492 314.941 795.425 316.673C796.013 318.669 797.122 322.013 797.32 323.962C810.661 366.497 809.592 418.235 797.286 460.941C796.969 462.365 796.458 464.121 796.51 465.509C784.347 503.523 771.247 544.045 756.617 581.091C755.591 583.583 754.958 585.531 754.157 588.071C753.7 589.36 752.854 592.001 752.327 593.137C746.22 607.813 741.133 623.99 735.268 638.952C720.66 676.22 705.076 713.282 684.701 747.835C679.801 756.145 672.996 768.414 666.78 775.7L664.55 779.629C659.763 791.192 657.008 797.409 650.283 808.292C647.85 811.95 643.879 816.906 639.944 818.94C638.185 818.843 637.358 818.213 635.738 818.733L635.933 820.077L635.21 820.914C628.172 823.484 606.716 818.762 599.549 816.191C595.913 815.825 584.233 812.971 580.101 812.031C566.344 808.951 552.619 805.731 538.928 802.371C493.021 791.267 447.171 779.926 401.38 768.348L267.919 735.367C252.242 731.587 236.607 727.638 221.015 723.522C214.584 721.819 204.775 719.536 198.883 717.216C196.263 716.564 192.571 715.271 189.914 714.427C185.333 712.699 178.1 710.884 176.363 706.035L176.547 705.378C174.803 701.506 173.882 681.167 175.508 676.387C177.223 671.188 180.228 668.271 183.802 664.186C185.477 661.363 196.329 649.252 199.105 646.081C199.498 644.327 200.438 641.819 201.035 640.046C201.622 638.47 202.231 636.903 202.864 635.345C204.833 626.767 208.653 616.114 211.507 607.678C218.813 586.174 226.748 564.89 235.301 543.852L278.697 435.308L280.214 431.123L282.91 424.559C285.461 417.959 288.299 411.307 291.029 404.771C304.402 372.756 317.232 339.886 333.204 309.06C334.261 307.13 335.398 304.457 336.492 302.354C337.256 300.613 337.671 299.644 338.65 298.03C347.028 280.136 356.352 266.358 367.285 250.137C376.82 236.007 386.581 222.031 396.564 208.215C396.498 205.101 396.477 202.476 396.604 199.364L396.796 198.135C397.321 189.974 398.866 181.785 400.278 173.734Z"/><path fill="#F2EEE8" d="M400.278 173.734C403.493 163.007 410.058 161.654 420.131 163.814C442.454 168.602 464.665 173.891 486.896 179.088L579.715 200.579C596.76 204.564 614.168 208.977 631.172 212.759L735.897 235.754C747.289 238.182 758.662 240.696 770.016 243.298C777.649 244.995 792.512 247.599 799.044 251.297C805.07 254.195 806.578 259.533 806.268 265.885C803.579 275.379 797.779 291.149 793.14 299.79C792.632 301.494 792.02 303.314 791.691 305.044L794.068 312.989C794.514 314.925 794.492 314.941 795.425 316.673C796.013 318.669 797.122 322.013 797.32 323.962C810.661 366.497 809.592 418.235 797.286 460.941C795.981 458.454 793.932 452.366 792.675 449.373L791.973 447.486L791.653 451.486C791.275 451.391 790.898 451.296 790.52 451.202C785.159 444.353 777.496 432.732 771.739 426.953L769.496 423.932C761.759 415.309 743.354 392.991 734.241 386.92L732.968 387.301L732.44 388.042C730.776 388.37 730.556 387.788 728.597 386.778C721.75 380.611 660.362 365.342 648.017 362.306C605.779 352.202 563.303 343.119 520.627 335.066C489.644 328.642 458.505 322.99 427.241 318.114C403.065 314.12 375.935 309.54 351.446 308.87C346.524 308.439 338.339 308.906 333.204 309.06C334.261 307.13 335.398 304.457 336.492 302.354C337.256 300.613 337.671 299.644 338.65 298.03C347.028 280.136 356.352 266.358 367.285 250.137C376.82 236.007 386.581 222.031 396.564 208.215C396.498 205.101 396.477 202.476 396.604 199.364L396.796 198.135C397.321 189.974 398.866 181.785 400.278 173.734Z"/><path fill="#6695AE" d="M400.278 173.734C403.493 163.007 410.058 161.654 420.131 163.814C442.454 168.602 464.665 173.891 486.896 179.088L579.715 200.579C596.76 204.564 614.168 208.977 631.172 212.759L735.897 235.754C747.289 238.182 758.662 240.696 770.016 243.298C777.649 244.995 792.512 247.599 799.044 251.297C805.07 254.195 806.578 259.533 806.268 265.885C803.579 275.379 797.779 291.149 793.14 299.79C792.632 301.494 792.02 303.314 791.691 305.044C790.692 302.284 783.001 297.789 780.247 295.754L779.88 295.896C778.298 295.218 776.121 294.51 774.458 293.913L773.654 293.834C763.29 289.977 735.849 284.185 724.187 281.471C690.944 273.671 657.66 266.046 624.336 258.597L488.996 227.08C469.304 222.282 449.57 217.659 429.797 213.211C421.648 211.354 413.464 209.3 405.301 207.509C402.149 206.817 399.608 207.472 396.564 208.215C396.498 205.101 396.477 202.476 396.604 199.364L396.796 198.135C397.321 189.974 398.866 181.785 400.278 173.734Z"/><path fill="#F2EEE8" d="M400.278 173.734C403.493 163.007 410.058 161.654 420.131 163.814C442.454 168.602 464.665 173.891 486.896 179.088L579.715 200.579C596.76 204.564 614.168 208.977 631.172 212.759L735.897 235.754C747.289 238.182 758.662 240.696 770.016 243.298C777.649 244.995 792.512 247.599 799.044 251.297L796.936 252.513C793.84 253.981 792.827 254.497 791.013 257.39C785.802 255.245 776.453 254.396 770.418 252.956C752.325 248.636 733.511 245.388 715.467 241.132L532.496 198.905C495.597 190.487 455.627 182.423 419.439 171.779C414.821 170.572 412.676 170.823 408.24 172.804L400.278 173.734Z"/><path fill="#386187" d="M396.604 199.364L397.033 202.212C398.779 203.454 401.608 202.368 404.064 202.804C420.646 205.743 437.364 210.188 453.754 213.926C510.657 226.561 567.441 239.73 624.096 253.433C659.245 261.619 694.588 268.967 729.554 277.624C742.631 280.861 762.589 284.783 774.929 289.303L776.084 289.647C775.616 291.015 775.131 292.66 774.458 293.913L773.654 293.834C763.29 289.977 735.849 284.185 724.187 281.471C690.944 273.671 657.66 266.046 624.336 258.597L488.996 227.08C469.304 222.282 449.57 217.659 429.797 213.211C421.648 211.354 413.464 209.3 405.301 207.509C402.149 206.817 399.608 207.472 396.564 208.215C396.498 205.101 396.477 202.476 396.604 199.364Z"/><path fill="#3B6C95" d="M799.044 251.297C805.07 254.195 806.578 259.533 806.268 265.885C803.579 275.379 797.779 291.149 793.14 299.79C792.632 301.494 792.02 303.314 791.691 305.044C790.692 302.284 783.001 297.789 780.247 295.754L779.88 295.896C778.298 295.218 776.121 294.51 774.458 293.913C775.131 292.66 775.616 291.015 776.084 289.647L774.929 289.303C776.613 286.141 780.366 283.343 782.407 278.727C785.627 271.444 787.482 264.593 791.013 257.39C792.827 254.497 793.84 253.981 796.936 252.513L799.044 251.297Z"/><path fill="#364F67" d="M791.013 257.39C792.827 254.497 793.84 253.981 796.936 252.513C797.706 254.341 797.755 253.509 797.118 255.097L795.598 258.89C793.645 268.659 790.254 285.056 785.256 293.211C788.02 295.315 790.77 297.252 793.14 299.79C792.632 301.494 792.02 303.314 791.691 305.044C790.692 302.284 783.001 297.789 780.247 295.754L779.88 295.896C778.298 295.218 776.121 294.51 774.458 293.913C775.131 292.66 775.616 291.015 776.084 289.647L774.929 289.303C776.613 286.141 780.366 283.343 782.407 278.727C785.627 271.444 787.482 264.593 791.013 257.39Z"/><path fill="#42759E" d="M791.013 257.39C792.827 254.497 793.84 253.981 796.936 252.513C797.706 254.341 797.755 253.509 797.118 255.097C792.499 256.953 790.42 270.102 788.746 274.666C786.521 280.731 784.105 286.542 781.613 292.49C779.5 290.867 778.505 290.604 776.084 289.647L774.929 289.303C776.613 286.141 780.366 283.343 782.407 278.727C785.627 271.444 787.482 264.593 791.013 257.39Z"/><path fill="#5787AB" d="M799.044 251.297C805.07 254.195 806.578 259.533 806.268 265.885C802.669 264.136 798.832 261.262 795.598 258.89L797.118 255.097C797.755 253.509 797.706 254.341 796.936 252.513L799.044 251.297Z"/><path fill="#70A2C7" d="M408.24 172.804C412.676 170.823 414.821 170.572 419.439 171.779C417.291 180.164 412.045 185.966 410.833 193.932C410.497 196.141 411.674 195.572 410.344 198.152C406.352 197.008 404.977 196.048 400.917 196.304C399.875 197.126 397.964 199.052 397.053 198.994L396.796 198.135C397.321 189.974 398.866 181.785 400.278 173.734L408.24 172.804Z"/><path fill="#DBD8D6" d="M400.278 173.734L408.24 172.804C403.157 178.469 402.972 184.019 401.82 191.235C401.606 192.577 401.39 195.108 400.917 196.304C399.875 197.126 397.964 199.052 397.053 198.994L396.796 198.135C397.321 189.974 398.866 181.785 400.278 173.734Z"/><path fill="#70A2C7" d="M739.546 268.909C743.5 270.415 749.907 271.945 754.175 272.68C755.243 272.864 754.607 272.674 755.732 273.587C752.013 274.427 745.988 273.117 741.919 272.591L741.909 272.599C740.755 271.108 740.451 270.58 739.546 268.909Z"/><path fill="#42759E" d="M697.683 262.656C699.117 262.725 699.016 262.704 700.209 263.509C701.709 265.799 701.669 267.607 702.541 268.884L701.297 269.385C698.652 266.803 698.947 267.914 696.139 266.249C696.031 264.603 696.604 264.396 697.683 262.656Z"/><path fill="#5787AB" d="M430.912 203.207C432.534 202.989 435.141 202.316 436.136 203.903C435.001 204.824 433.948 204.642 432.435 204.685C429.891 204.821 429.678 204.892 427.288 204.195L427.554 203.649L430.912 203.207Z"/><path fill="#B0ADAD" d="M779.88 295.896L780.247 295.754C783.001 297.789 790.692 302.284 791.691 305.044L794.068 312.989C794.514 314.925 794.492 314.941 795.425 316.673C796.013 318.669 797.122 322.013 797.32 323.962C810.661 366.497 809.592 418.235 797.286 460.941C795.981 458.454 793.932 452.366 792.675 449.373L791.973 447.486C788.758 440.414 778.7 428.057 773.339 421.898L770.708 418.66C762.41 407.151 745.405 389.532 734.926 380.224C740.18 366.235 756.515 332.207 766.441 321.72C768.934 321.966 771.084 322.22 773.602 322.21C774.179 321.238 774.061 321.779 773.858 320.569C772.285 319.613 770.052 319.85 768.125 319.829L767.646 319.133C767.707 316.105 769.311 313.682 771.068 311.313C774.802 306.276 777.295 301.597 779.88 295.896Z"/><path fill="#B0ADAD" d="M795.425 316.673C796.013 318.669 797.122 322.013 797.32 323.962C810.661 366.497 809.592 418.235 797.286 460.941C795.981 458.454 793.932 452.366 792.675 449.373L791.973 447.486C788.758 440.414 778.7 428.057 773.339 421.898C774.805 419.262 775.721 415.753 776.963 412.992C782.005 401.787 782.888 392.39 784.133 380.39C785.948 362.893 785.696 346.118 785.484 328.545L788.938 324.059L791.807 320.39L792.265 320.168L795.425 316.673Z"/><path fill="#C3C1C0" d="M795.425 316.673C796.013 318.669 797.122 322.013 797.32 323.962C810.661 366.497 809.592 418.235 797.286 460.941C795.981 458.454 793.932 452.366 792.675 449.373C794.909 442.554 794.462 433.662 795.212 426.658C795.713 421.982 797.212 417.301 797.765 412.186C800.115 390.457 799.524 371.338 798.201 349.604C797.477 349.435 797.02 349.215 796.326 348.942C794.755 346.769 794.085 344.028 793.233 341.431C791.699 336.5 791.019 328.471 788.938 324.059L791.807 320.39L792.265 320.168L795.425 316.673Z"/><path fill="#9D9B9B" d="M795.425 316.673C796.013 318.669 797.122 322.013 797.32 323.962L796.532 323.489L795.265 319.529L794.489 319.392C792.19 322.031 796.227 327.072 796.762 330.566C797.731 336.901 797.903 343.215 798.201 349.604C797.477 349.435 797.02 349.215 796.326 348.942C794.755 346.769 794.085 344.028 793.233 341.431C791.699 336.5 791.019 328.471 788.938 324.059L791.807 320.39L792.265 320.168L795.425 316.673Z"/><path fill="#919090" d="M792.265 320.168C792.156 322.954 792.183 324.627 792.351 327.386C792.605 331.588 795.013 337.715 793.233 341.431C791.699 336.5 791.019 328.471 788.938 324.059L791.807 320.39L792.265 320.168Z"/><defs><linearGradient id="gradient_0" gradientUnits="userSpaceOnUse" x1="774.42767" y1="375.11566" x2="784.52191" y2="376.79086"><stop offset="0" stop-color="#5F5E5F"/><stop offset="1" stop-color="#7C7A7B"/></linearGradient></defs><path fill="url(#gradient_0)" d="M784.405 326.852L785.484 328.545C785.696 346.118 785.948 362.893 784.133 380.39C782.888 392.39 782.005 401.787 776.963 412.992C775.721 415.753 774.805 419.262 773.339 421.898L770.708 418.66C771.991 415.914 772.927 412.101 774.122 409.186C783.897 385.352 782.054 359.043 780.748 333.417L781.667 332.312C783.062 332.119 783.916 332.177 784.917 331.217C785.248 329.363 784.898 328.654 784.405 326.852Z"/><path fill="#686D76" d="M794.068 312.989C794.514 314.925 794.492 314.941 795.425 316.673L792.265 320.168L791.807 320.39L788.938 324.059L785.484 328.545L784.405 326.852C784.898 328.654 785.248 329.363 784.917 331.217C783.916 332.177 783.062 332.119 781.667 332.312L780.748 333.417L780.262 331.139L779.672 330.843C776.269 335.276 772.946 340.367 769.68 344.526C770.036 342.174 770.438 338.537 771.207 336.398C773.367 330.476 774.873 328.036 779.707 323.956C783.413 320.008 789.325 315.554 794.068 312.989Z"/><path fill="#737374" d="M771.207 336.398C773.367 330.476 774.873 328.036 779.707 323.956C779.141 330.317 774.611 332.343 771.207 336.398Z"/><path fill="#737374" d="M784.405 326.852C786.065 322.969 787.142 320.266 791.807 320.39L788.938 324.059L785.484 328.545L784.405 326.852Z"/><path fill="#919090" d="M758.917 368.727L759.846 369.572C760.43 372.038 759.501 377.861 758.624 380.317C758.362 380.025 758.1 379.733 757.838 379.441C758.498 376.295 758.83 371.685 758.917 368.727Z"/><path fill="#F2EEE8" d="M338.65 298.03C342.164 298.674 351.137 297.492 356.023 297.968C388.368 299.262 423.178 305.785 455.149 311.169C520.835 322.598 586.171 335.951 651.073 351.211C664.425 354.532 677.723 358.066 690.962 361.812C696.804 363.483 703.786 365.852 709.48 367.304C718.345 371.031 727.589 374.013 734.926 380.224C745.405 389.532 762.41 407.151 770.708 418.66L773.339 421.898C778.7 428.057 788.758 440.414 791.973 447.486L791.653 451.486C791.275 451.391 790.898 451.296 790.52 451.202C785.159 444.353 777.496 432.732 771.739 426.953L769.496 423.932C761.759 415.309 743.354 392.991 734.241 386.92L732.968 387.301L732.44 388.042C730.776 388.37 730.556 387.788 728.597 386.778C721.75 380.611 660.362 365.342 648.017 362.306C605.779 352.202 563.303 343.119 520.627 335.066C489.644 328.642 458.505 322.99 427.241 318.114C403.065 314.12 375.935 309.54 351.446 308.87C346.524 308.439 338.339 308.906 333.204 309.06C334.261 307.13 335.398 304.457 336.492 302.354C337.256 300.613 337.671 299.644 338.65 298.03Z"/><defs><linearGradient id="gradient_1" gradientUnits="userSpaceOnUse" x1="570.67169" y1="446.74216" x2="571.84875" y2="300.21381"><stop offset="0" stop-color="#324F6C"/><stop offset="1" stop-color="#8D8482"/></linearGradient></defs><path fill="url(#gradient_1)" d="M356.023 297.968C388.368 299.262 423.178 305.785 455.149 311.169C520.835 322.598 586.171 335.951 651.073 351.211C664.425 354.532 677.723 358.066 690.962 361.812C696.804 363.483 703.786 365.852 709.48 367.304C718.345 371.031 727.589 374.013 734.926 380.224C745.405 389.532 762.41 407.151 770.708 418.66L773.339 421.898C778.7 428.057 788.758 440.414 791.973 447.486L791.653 451.486C791.275 451.391 790.898 451.296 790.52 451.202C785.159 444.353 777.496 432.732 771.739 426.953L769.496 423.932C761.759 415.309 743.354 392.991 734.241 386.92L732.968 387.301L733.214 385.339C732.952 384.642 732.689 383.984 732.178 383.422C712.934 362.255 474.727 318.901 434.134 312.252C409.318 308.128 384.366 304.863 359.325 302.465C356.635 301.422 355.931 301.979 353.713 301.13C354.03 299.506 354.631 299.401 356.023 297.968Z"/><path fill="#B0ADAD" d="M338.65 298.03C342.164 298.674 351.137 297.492 356.023 297.968C354.631 299.401 354.03 299.506 353.713 301.13C355.931 301.979 356.635 301.422 359.325 302.465C356.216 302.585 352.203 302.096 348.876 302.133C344.693 302.18 340.668 302.388 336.492 302.354C337.256 300.613 337.671 299.644 338.65 298.03Z"/><path fill="#C3C1C0" d="M773.654 293.834L774.458 293.913C776.121 294.51 778.298 295.218 779.88 295.896C777.295 301.597 774.802 306.276 771.068 311.313C769.311 313.682 767.707 316.105 767.646 319.133L768.125 319.829C770.052 319.85 772.285 319.613 773.858 320.569C774.061 321.779 774.179 321.238 773.602 322.21C771.084 322.22 768.934 321.966 766.441 321.72C756.515 332.207 740.18 366.235 734.926 380.224C727.589 374.013 718.345 371.031 709.48 367.304C714.832 366.949 720.004 371.531 724.938 372.751C725.891 372.986 726.66 373.219 727.604 373.498C729.542 371.258 730.409 367.41 732.103 365.086C738.637 355.635 744.507 344.768 750.179 334.745C756.248 324.019 772.57 305.258 773.654 293.834Z"/><path fill="#C3C1C0" d="M364.015 284.668C366.977 282.594 379.259 283.08 382.768 284.294L383.063 284.915L381.607 285.353C376.208 284.761 371.217 285.5 365.775 285.997C365.091 285.48 364.504 285.037 364.015 284.668Z"/><path fill="#C3C1C0" d="M760.386 302.701L760.719 302.826L760.935 303.378L759.5 304.607C757.424 305.088 753.488 304.394 751.014 304.185L750.48 304.216L750.747 303.794L760.386 302.701Z"/><path fill="#6695AE" d="M333.204 309.06C338.339 308.906 346.524 308.439 351.446 308.87C375.935 309.54 403.065 314.12 427.241 318.114C458.505 322.99 489.644 328.642 520.627 335.066C563.303 343.119 605.779 352.202 648.017 362.306C660.362 365.342 721.75 380.611 728.597 386.778C730.556 387.788 730.776 388.37 732.44 388.042L732.968 387.301L734.241 386.92C743.354 392.991 761.759 415.309 769.496 423.932L771.739 426.953C777.496 432.732 785.159 444.353 790.52 451.202C790.898 451.296 791.275 451.391 791.653 451.486L791.973 447.486L792.675 449.373C793.932 452.366 795.981 458.454 797.286 460.941C796.969 462.365 796.458 464.121 796.51 465.509C784.347 503.523 771.247 544.045 756.617 581.091C754.26 578.207 753.758 574.731 750.513 571.252C744.424 562.67 738.8 555.172 731.612 547.475L731.519 547.148C730.492 546.046 729.47 544.938 728.454 543.825L728.388 543.334C715.914 532.108 706.53 521.085 692.737 510.637C691.696 512.795 690.67 514.96 689.659 517.133C685.525 514.737 681.33 512.449 677.077 510.269C639.618 496.145 595.219 485.234 555.962 476.314C519.491 467.847 482.846 460.145 446.053 453.212C418.753 447.802 391.337 442.997 363.825 438.802C353.626 437.261 339.853 435.006 329.668 434.078C325.222 432.797 300.906 430.718 296.38 430.79C291.137 430.337 285.471 430.749 280.214 431.123L282.91 424.559C285.461 417.959 288.299 411.307 291.029 404.771C304.402 372.756 317.232 339.886 333.204 309.06Z"/><path fill="#42759E" d="M732.968 387.301L734.241 386.92C743.354 392.991 761.759 415.309 769.496 423.932L771.739 426.953C777.496 432.732 785.159 444.353 790.52 451.202C790.898 451.296 791.275 451.391 791.653 451.486L791.973 447.486L792.675 449.373C793.932 452.366 795.981 458.454 797.286 460.941C796.969 462.365 796.458 464.121 796.51 465.509C784.347 503.523 771.247 544.045 756.617 581.091C754.26 578.207 753.758 574.731 750.513 571.252C744.424 562.67 738.8 555.172 731.612 547.475L731.519 547.148C730.492 546.046 729.47 544.938 728.454 543.825L728.388 543.334C715.914 532.108 706.53 521.085 692.737 510.637C691.696 512.795 690.67 514.96 689.659 517.133C685.525 514.737 681.33 512.449 677.077 510.269C677.636 507.912 678.504 505.196 679.192 502.838C679.875 498.329 685.373 486.596 687.733 482.656L687.916 482.987C687.112 487.511 678.993 498.22 680.841 502.209C682.672 503.291 689.137 507.48 690.91 507.264C691.094 506.426 691.278 506.218 691.559 505.503C702.777 476.967 713.944 447.742 722.769 418.369C726.009 407.585 725.252 399.999 730.746 389.263C729.756 388.153 729.791 388.342 728.436 387.576L728.597 386.778C730.556 387.788 730.776 388.37 732.44 388.042L732.968 387.301Z"/><path fill="#364F67" d="M728.388 543.334C735.093 526.464 741.59 509.512 747.879 492.482C751.013 484.065 754.837 469.486 760.926 463.19C758.596 477.216 753.285 487.465 748.813 500.597C743.281 516.844 738.118 531.314 731.519 547.148C730.492 546.046 729.47 544.938 728.454 543.825L728.388 543.334Z"/><path fill="#C3C1C0" d="M679.192 502.838C683.632 504.3 689.182 507.606 692.737 510.637C691.696 512.795 690.67 514.96 689.659 517.133C685.525 514.737 681.33 512.449 677.077 510.269C677.636 507.912 678.504 505.196 679.192 502.838Z"/><path fill="#364F67" d="M769.496 423.932L771.739 426.953C770.087 431.4 767.4 445.464 763.627 447.531L762.807 447.031C762.241 444.547 768.23 427.33 769.496 423.932Z"/><path fill="#3B6C95" d="M791.973 447.486L792.675 449.373C793.932 452.366 795.981 458.454 797.286 460.941C796.969 462.365 796.458 464.121 796.51 465.509C793.54 461.033 791.976 456.853 791.653 451.486L791.973 447.486Z"/><path fill="#F2EEE8" d="M282.91 424.559C289.005 424.322 295.483 423.327 301.577 423.985C310.485 424.03 320.435 425.723 329.345 426.686C350.72 428.994 371.444 432.702 392.625 436.269C433.824 443.022 474.819 450.963 515.56 460.081C555.972 468.372 596.093 478.024 635.854 489.02C651.216 493.43 664.271 497.975 679.192 502.838C678.504 505.196 677.636 507.912 677.077 510.269C639.618 496.145 595.219 485.234 555.962 476.314C519.491 467.847 482.846 460.145 446.053 453.212C418.753 447.802 391.337 442.997 363.825 438.802C353.626 437.261 339.853 435.006 329.668 434.078C325.222 432.797 300.906 430.718 296.38 430.79C291.137 430.337 285.471 430.749 280.214 431.123L282.91 424.559Z"/><path fill="#A0C4C6" d="M333.204 309.06C338.339 308.906 346.524 308.439 351.446 308.87C349.394 312.016 347.581 313.303 349.115 316.937L349.074 317.188C348.765 317.385 346.346 318.927 346.346 318.926C345.118 321.799 343.181 325.804 341.784 328.514C332.596 346.312 324.139 364.478 316.435 382.967C310.667 397.044 307.841 407.729 300.64 422.346C300.91 423.656 300.552 423.152 301.577 423.985C295.483 423.327 289.005 424.322 282.91 424.559C285.461 417.959 288.299 411.307 291.029 404.771C304.402 372.756 317.232 339.886 333.204 309.06Z"/><path fill="#686D76" d="M421.877 411.158C415.644 419.519 407.245 413.695 398.106 412.98C391.84 412.489 384.221 410.648 378.151 409.146C376.096 408.637 374.542 403.726 373.853 401.802C366.307 408.712 358.588 408.288 349.008 406.132C342.227 404.44 334.954 399.973 331.776 393.727C317.341 365.351 344.453 322.498 378.056 332.932C385.836 335.348 388.655 338.315 392.305 345.016C393.515 342.199 394.694 338.276 397.733 336.906C400.424 335.693 433.018 341.164 436.613 342.827C439.301 344.071 440.029 346.829 440.834 349.43L441.665 349.504C445.325 343.735 452.533 344.788 458.234 345.944C463.929 347.098 467.076 347.614 470.467 352.564C470.97 361.73 470.858 372.363 471.186 381.751C478.878 374.081 483.538 359.637 493.261 353.327C497.727 353.554 506.815 355.239 511.086 356.651C515.462 358.099 516.603 359.91 518.427 363.741C514.566 379.711 508.105 395.497 503.951 411.448C502.924 415.393 500.027 427.671 496.299 429.538C491.714 431.834 478.287 429.003 475.754 423.863C474.267 420.53 476.769 414.48 477.829 411.4C473.735 417.479 472.469 419.956 466.756 424.76C449.28 421.354 449.501 420.773 449.783 402.919C443.172 420.205 444.765 422.949 424.083 416.716C423.334 414.869 422.599 413.016 421.877 411.158Z"/><path fill="#6695AE" d="M436.953 361.165L437.631 362.921C434.623 369.507 427.085 391.644 424.956 398.8L424.594 398.29C418.205 389.468 401.161 394.647 404.943 386.807C405.746 386.599 419.263 388.598 421.142 388.837C428.19 385.709 427.962 382.72 429.933 375.662C428.214 372.125 427.281 368.146 422.865 368.088C420.316 366.239 416.839 365.55 415.698 363.911L415.912 362.755C423.905 363.603 431.301 367.828 436.953 361.165Z"/><path fill="#70A2C7" d="M422.865 368.088C418.747 367.984 415.841 367.804 412.626 365.265C411.869 363.594 411.872 364.388 412.396 362.811C414.042 361.987 413.628 362.287 415.912 362.755L415.698 363.911C416.839 365.55 420.316 366.239 422.865 368.088Z"/><path fill="#5787AB" d="M440.834 349.43L441.665 349.504C440.601 355.056 438.773 358.232 437.631 362.921L436.953 361.165C438.283 357.266 439.577 353.354 440.834 349.43Z"/><path fill="#F2EEE8" d="M448.462 348.833C453.556 350.278 459.836 350.087 464.112 352.572C466.444 355.545 466.449 359.126 466.52 362.77C466.74 374.103 466.671 385.45 466.554 396.783C471.829 388.591 488.144 362.831 494.797 357.75C499.991 359.078 509.236 359.484 512.705 363.069C512.89 365.743 496.137 419.864 493.753 424.736C489.612 424.463 483.597 424.081 480.359 421.64C478.754 418.301 486.145 398.847 487.73 394.12C489.408 389.523 490.602 384.972 491.902 380.264C482.789 391.967 474.957 407.284 466.187 418.654C462.64 418.106 457.927 417.723 454.96 415.898C452.743 412.304 453.508 378.629 453.702 372.482C450.983 381.891 443.896 405.988 439.714 414.193C437.75 413.979 425.64 413.193 426.52 410.505C430.333 398.851 441.825 356.266 448.462 348.833Z"/><path fill="#F2EEE8" d="M399.607 340.903C405.251 341.285 431.152 345.765 435.977 347.652C434.848 351.69 433.352 355.616 431.509 359.381C424.3 358.699 416.266 357.306 409.106 356.096L405.686 367.4C417.233 370.281 430.509 366.663 421.103 383.58C415.284 383.026 407.632 381.499 401.897 380.304C401.032 383.626 399.459 387.594 398.255 390.878C397.675 392.3 397.703 391.575 397.898 393.048C401.332 395.721 413.452 394.829 418.773 397.517C419.245 398.119 419.774 398.451 419.605 399.165C418.669 403.121 417.342 411.433 411.576 409.696C405.988 408.012 382.146 406.559 379.163 402.608C378.946 396.657 396.193 345.096 399.607 340.903Z"/><path fill="#F2EEE8" d="M364.009 335.642C366.99 335.371 369.994 335.482 372.947 335.972C386.461 338.279 392.644 346.729 378.42 354.976C376.08 353.109 374.341 351.791 371.854 350.119C368.853 349.863 366.124 349.405 363.294 350.446C345.873 356.858 339.863 397.143 368.866 385.306L372.126 388.344C373.157 390.952 371.894 394.59 371.156 397.27C362.232 403.559 350.209 402.888 341.327 396.785C326.311 386.467 332.546 361.94 341.703 349.704C347.464 342.006 354.304 337.153 364.009 335.642Z"/><path fill="#6695AE" d="M378.336 360.805C383.572 359.201 384.645 358.614 388.872 355.141L377.372 389.232C374.863 385.003 374.052 384.009 370.206 381.284C365.997 382.735 360.966 385.098 356.595 382.572C350.097 378.817 353.7 368.565 356.728 363.599C359.437 359.158 362.321 356.683 367.375 355.55C372.403 356.176 374.212 357.888 378.336 360.805Z"/><path fill="#686D76" d="M501.77 426.78C503.355 417.221 507.748 407.475 510.674 398.185C513.675 388.658 516.038 378.89 519.306 369.454C520.085 367.207 521.06 364.164 522.47 362.239C523.375 361.003 524.416 360.708 525.879 360.474C530.871 359.677 563.063 366.022 566.511 369.125C567.652 370.151 568.233 372.083 568.302 373.569C568.479 377.412 566.355 384.351 563.721 387.124C558.04 393.105 548.021 386.076 541.22 386.272C539.627 387.22 539.936 387.577 539.035 389.756C543.343 389.875 548.962 390.756 552.838 392.652C556.47 394.769 556.813 395.977 558.398 399.835C557.148 405.3 555.934 413.492 548.822 413.869C543.249 414.165 539.599 410.671 533.85 411.694C532.092 413.06 532.472 413.359 531.588 415.916C540.762 417.443 548.234 416.613 553.769 424.913C557.422 413.706 561.016 402.48 564.55 391.235C570.058 373.618 569.082 365.065 591.956 374.18C598.124 376.638 601.205 398.371 602.559 404.524C603.219 402.396 604.731 397.858 605.15 396.135C609.8 377.029 612.272 376.102 631.063 382.089C633.177 382.762 633.866 385.909 634.485 387.898C636.96 386.094 638.011 385.512 640.662 384.125C654.888 387.491 672.161 391.45 685.987 396.365C689.709 397.688 690.181 400.636 691.409 404.233C685.916 419.454 688.44 423.13 670.541 416.673C666.673 426.471 663.847 436.939 660.725 447.007C659.216 451.874 657.97 457.284 655.591 461.809C654.879 463.162 653.888 464.433 652.546 465.213C649.595 466.927 645.211 465.51 642.123 464.615C638.166 463.467 632.176 461.622 630.408 457.522C628.778 453.742 642.145 416.435 645.008 410.293C637.836 408.458 635.251 408.696 631.442 402.588C627.307 413.423 624.057 424.743 620.267 435.668C619.03 438.133 614.967 456.172 611.437 455.746C603.369 454.774 590.654 455.062 588.235 445.44C585.97 436.433 583.885 428.512 582.052 420.131C579.881 427.301 576.981 437.516 574.096 444.203C568.283 448.327 560.163 445.93 554.087 442.982C552.722 442.32 552.76 439.177 550.54 437.934C548.548 440.3 546.994 442.171 543.643 441.357C531.656 438.446 517.617 436.493 505.868 433.143C503.575 430.939 503.03 429.673 501.77 426.78Z"/><path fill="#F2EEE8" d="M525.595 418.017C530.229 418.884 546.442 421.03 548.443 424.244C548.601 428.073 546.922 433.911 543.155 435.688C538.467 435.419 507.201 428.367 507.082 426.208C506.816 421.382 523.615 367.342 527.107 365.06C531.19 364.243 558.854 370.141 562.66 371.982C564.581 374.503 561.747 381.666 559.214 383.586C556.293 384.586 541.461 380.982 537.329 380.123C536.098 384.05 534.349 387.32 534.395 391.316C535.36 392.789 535.254 392.337 537.576 392.911C539.003 391.961 538.553 392.091 539.035 389.756C543.343 389.875 548.962 390.756 552.838 392.652C552.796 394.002 552.769 395.361 552.679 396.708C554.149 399.375 551.634 405.711 549.783 407.893C547.436 409.273 533.666 405.582 530.055 404.815C528.51 408.963 527.019 413.777 525.595 418.017Z"/><path fill="#737374" d="M539.035 389.756C543.343 389.875 548.962 390.756 552.838 392.652C552.796 394.002 552.769 395.361 552.679 396.708C548.188 394.536 542.53 393.784 537.576 392.911C539.003 391.961 538.553 392.091 539.035 389.756Z"/><path fill="#F2EEE8" d="M575.489 374.974C579.204 374.744 587.324 376.426 590.688 378.324C593.132 381.282 600.958 414.947 602.259 420.747C603.713 415.274 612.482 386.487 615.125 383.473C618.352 382.859 627.802 384.877 629.503 387.938C629.27 389.796 628.078 394.719 627.413 396.239C623.555 405.051 613.861 445.233 608.818 450.365C603.544 449.224 599.081 448.038 593.907 446.597C589.589 434.394 584.983 413.458 582.479 400.675C580.786 406.613 572.348 437.615 568.666 440.19C565.109 440.659 557.693 439.626 555.726 436.3C555.503 432.419 563.725 409.178 565.221 404.24C566.708 399.328 572.943 378.042 575.489 374.974Z"/><path fill="#F2EEE8" d="M640.345 388.336C653.319 392.305 667.75 394.818 680.717 399.125C681.91 399.522 685.201 401.026 685.488 402.266C686.191 405.301 683.199 411.327 681.74 413.92C677.116 413.102 671.501 411.434 666.885 410.194C663.038 422.126 659.497 433.742 655.474 445.661C654.039 449.362 652.157 458.791 648.271 460.01C644.468 459.622 638.427 458.025 635.478 455.554C633.922 452.652 648.346 413.622 650.006 406.58L650.192 405.773C646.2 404.488 641.933 404.247 638.195 402.265C632.599 399.298 637.537 391.639 640.345 388.336Z"/><defs><linearGradient id="gradient_2" gradientUnits="userSpaceOnUse" x1="398.07211" y1="757.84912" x2="412.84134" y2="660.79041"><stop offset="0" stop-color="#598EB7"/><stop offset="1" stop-color="#74A8CB"/></linearGradient></defs><path fill="url(#gradient_2)" d="M218.236 634.954L219.878 635.197C223.844 634.96 243.25 636.061 247.143 636.913C265.96 637.674 298.945 642.596 317.669 645.923C362.165 654.28 406.443 663.758 450.461 674.35C489.792 683.718 529.702 693.533 568.191 705.933C575.874 708.409 594.817 714.515 600.887 718.648L603.636 719.805C606.36 721.617 610.991 724.105 613.956 725.685L614.238 726.13C618.731 729.338 625.98 734.123 629.002 738.441L629.688 738.381C631.312 739.043 632.043 739.317 633.718 739.79L634.061 740.792L634.05 741.585C644.408 747.287 654.177 754.587 661.163 764.204C662.966 767.426 665.918 772.316 666.78 775.7L664.55 779.629C659.763 791.192 657.008 797.409 650.283 808.292C647.85 811.95 643.879 816.906 639.944 818.94C638.185 818.843 637.358 818.213 635.738 818.733L635.933 820.077L635.21 820.914C628.172 823.484 606.716 818.762 599.549 816.191C595.913 815.825 584.233 812.971 580.101 812.031C566.344 808.951 552.619 805.731 538.928 802.371C493.021 791.267 447.171 779.926 401.38 768.348L267.919 735.367C252.242 731.587 236.607 727.638 221.015 723.522C214.584 721.819 204.775 719.536 198.883 717.216C196.263 716.564 192.571 715.271 189.914 714.427C185.333 712.699 178.1 710.884 176.363 706.035L176.547 705.378C174.803 701.506 173.882 681.167 175.508 676.387C177.223 671.188 180.228 668.271 183.802 664.186C185.477 661.363 196.329 649.252 199.105 646.081C199.498 644.327 200.438 641.819 201.035 640.046C202.695 640.047 213.655 635.746 218.236 634.954Z"/><path fill="#3B6C95" d="M192.862 693.146C193.002 692.875 193.499 692.191 193.69 691.913C195.013 691.922 195.829 692.014 197.133 692.151C199.674 692.786 202.049 693.384 204.649 693.758C209.215 694.416 213.662 693.832 217.966 695.42C228.816 699.378 239.941 702.534 251.253 704.863C258.348 706.309 266.146 707.371 273.07 709.001L393.68 736.779C409.101 740.356 424.476 744.127 439.802 748.093C446.094 749.76 452.176 751.852 458.404 753.632L497.331 764.371C521.647 770.885 546.093 776.903 570.654 782.422L589.849 786.539C597.603 788.179 598.279 789.544 606.573 789.244C614.658 782.23 619.146 781.544 620.982 769.296C621.954 762.813 616.83 747.418 618.543 744.091C619.491 748.187 619.434 752.924 621.969 756.093C623.655 756.838 622.804 756.748 624.61 756.369C629.878 752.199 627.492 745.729 624.052 741.272L624.159 740.401C625.413 741.851 626.503 743.134 627.676 744.65C627.852 742.32 627.697 740.255 629.002 738.441L629.688 738.381C631.312 739.043 632.043 739.317 633.718 739.79L634.061 740.792L634.05 741.585C644.408 747.287 654.177 754.587 661.163 764.204C662.966 767.426 665.918 772.316 666.78 775.7L664.55 779.629C659.763 791.192 657.008 797.409 650.283 808.292C647.85 811.95 643.879 816.906 639.944 818.94C638.185 818.843 637.358 818.213 635.738 818.733L635.933 820.077L635.21 820.914C628.172 823.484 606.716 818.762 599.549 816.191C595.913 815.825 584.233 812.971 580.101 812.031C566.344 808.951 552.619 805.731 538.928 802.371C493.021 791.267 447.171 779.926 401.38 768.348L267.919 735.367C252.242 731.587 236.607 727.638 221.015 723.522C214.584 721.819 204.775 719.536 198.883 717.216C196.263 716.564 192.571 715.271 189.914 714.427C185.333 712.699 178.1 710.884 176.363 706.035L177.434 706.295C179.949 705.907 181.794 705.845 184.297 706.545L183.426 705.399C184.637 703.388 185.739 705.504 187.852 703.379C187.535 697.39 188.662 697.119 192.862 693.146Z"/><path fill="#5787AB" d="M646.226 805.596C649.653 795.075 658.024 779.568 658.844 769.933C660.836 773.226 662.287 776.434 664.55 779.629C659.763 791.192 657.008 797.409 650.283 808.292C648.907 807.069 647.799 806.51 646.226 805.596Z"/><path fill="#364F67" d="M625.396 792.294L625.779 791.701C629.954 785.121 633.834 770.119 635.975 768.502C638.564 775.495 632.603 790.695 627.751 796.189C629.1 799.042 638.524 817.724 639.944 818.94C638.185 818.843 637.358 818.213 635.738 818.733C634.607 817.887 633.261 814.531 631.819 812.602C628.182 805.709 624.848 798.66 621.829 791.474C618.744 792.709 615.539 793.952 612.171 793.342L611.851 793.006L612.707 793.009C617.382 793.002 618.539 792.538 622.719 790.103C620.862 787.282 617.35 791.085 614.277 790.278C615.45 789.406 614.28 790.036 615.849 789.794C622.095 788.829 621.057 785.81 625.396 792.294Z"/><path fill="#364F67" d="M629.002 738.441L629.688 738.381C631.312 739.043 632.043 739.317 633.718 739.79L634.061 740.792L634.05 741.585C629.77 749.783 637.495 760.433 635.021 764.913C630.049 763.677 629.59 748.41 627.676 744.65C627.852 742.32 627.697 740.255 629.002 738.441Z"/><path fill="#A0C4C6" d="M177.434 706.295C179.949 705.907 181.794 705.845 184.297 706.545C185.904 707.526 189.421 709.544 190.74 710.64L191.758 711.551C190.263 713.083 190.824 713.118 189.914 714.427C185.333 712.699 178.1 710.884 176.363 706.035L177.434 706.295Z"/><path fill="#6695AE" d="M177.434 706.295C179.949 705.907 181.794 705.845 184.297 706.545C185.904 707.526 189.421 709.544 190.74 710.64C187.59 713.577 180.832 708.254 177.434 706.295Z"/><path fill="#386187" d="M631.819 812.602C633.261 814.531 634.607 817.887 635.738 818.733L635.933 820.077L635.21 820.914C628.172 823.484 606.716 818.762 599.549 816.191C601.846 814.721 628.09 824.997 634.657 819.693C633.56 817.923 633.177 816.526 632.119 814.852L631.601 815.052C629.286 815.961 624.794 817.577 622.782 815.727C623.696 811.982 628.832 815.074 631.819 812.602Z"/><path fill="#70A2C7" d="M191.758 711.551C194.135 713.134 196.5 714.733 198.855 716.349L198.991 717.06L198.883 717.216C196.263 716.564 192.571 715.271 189.914 714.427C190.824 713.118 190.263 713.083 191.758 711.551Z"/><defs><linearGradient id="gradient_3" gradientUnits="userSpaceOnUse" x1="213.51204" y1="635.98895" x2="213.48491" y2="671.52252"><stop offset="0" stop-color="#8DB4D2"/><stop offset="1" stop-color="#CADDE7"/></linearGradient></defs><path fill="url(#gradient_3)" d="M218.236 634.954L219.878 635.197C223.844 634.96 243.25 636.061 247.143 636.913C245.575 637.05 244.943 636.83 243.848 637.604L244.008 637.715C241.811 639.222 239.479 641.071 236.934 641.417C236.889 641.44 236.843 641.463 236.798 641.486C231.522 643.693 223.087 645.352 218.975 647.679C207.047 652.396 202.7 654.118 193.57 663.277C190.916 665.939 187.525 668.384 185.579 671.792C185.068 672.688 184.579 673.159 183.662 673.536L181.951 673.458C180.005 674.261 177.402 674.151 176.55 675.745L175.508 676.387C177.223 671.188 180.228 668.271 183.802 664.186C185.477 661.363 196.329 649.252 199.105 646.081C199.498 644.327 200.438 641.819 201.035 640.046C202.695 640.047 213.655 635.746 218.236 634.954Z"/><path fill="#686D76" d="M218.236 634.954L219.878 635.197C221.824 635.714 223.846 635.674 225.875 635.755C218.328 638.772 206.686 643.732 199.105 646.081C199.498 644.327 200.438 641.819 201.035 640.046C202.695 640.047 213.655 635.746 218.236 634.954Z"/><path fill="#DBD8D6" d="M183.802 664.186L184.112 665.133L183.663 666.008L183.771 666.6C184.332 669.817 184.798 671.397 181.951 673.458C180.005 674.261 177.402 674.151 176.55 675.745L175.508 676.387C177.223 671.188 180.228 668.271 183.802 664.186Z"/><path fill="#A0C4C6" d="M236.798 641.486C249.032 645.617 263.342 644.699 276.653 650.221C271.973 650.504 266.696 648.43 262.123 648.325C252.284 648.098 242.453 649.23 232.729 650.576C227.047 651.363 223.062 653.489 219.715 647.851L218.975 647.679C223.087 645.352 231.522 643.693 236.798 641.486Z"/><path fill="#5787AB" d="M175.508 676.387L176.55 675.745C176.364 677.473 176.152 680.249 175.748 681.85C177.482 682.175 177.898 682.12 179.187 683.353C176.859 689.123 189.666 691.798 192.862 693.146C188.662 697.119 187.535 697.39 187.852 703.379C185.739 705.504 184.637 703.388 183.426 705.399L184.297 706.545C181.794 705.845 179.949 705.907 177.434 706.295L176.363 706.035L176.547 705.378C174.803 701.506 173.882 681.167 175.508 676.387Z"/><path fill="#F2EEE8" d="M175.508 676.387L176.55 675.745C176.364 677.473 176.152 680.249 175.748 681.85C176.599 686.104 177.999 701.844 176.547 705.378C174.803 701.506 173.882 681.167 175.508 676.387Z"/><path fill="#42759E" d="M600.887 718.648L603.636 719.805C606.36 721.617 610.991 724.105 613.956 725.685L614.238 726.13C618.731 729.338 625.98 734.123 629.002 738.441C627.697 740.255 627.852 742.32 627.676 744.65C626.503 743.134 625.413 741.851 624.159 740.401L624.052 741.272C621.636 739.22 614.764 733.08 612.186 732.357C612.426 738.124 617.833 747.533 615.955 755.296C615.431 757.461 615.758 762.194 617.089 764.186L616.886 764.737C616.068 764.415 615.493 764.137 615.444 763.021C615.049 755.822 616.466 744.832 612.523 738.408C610.306 734.794 611.952 730.431 609.271 729.244C607.759 730.132 608.161 730.014 607.138 731.735C605.21 727.387 598.312 723.327 600.887 718.648Z"/><path fill="#386187" d="M614.238 726.13C618.731 729.338 625.98 734.123 629.002 738.441C627.697 740.255 627.852 742.32 627.676 744.65C626.503 743.134 625.413 741.851 624.159 740.401C620.101 736.574 616.458 733.537 611.768 730.545C612.625 729.104 613.428 727.601 614.238 726.13Z"/><path fill="#70A2C7" d="M181.951 673.458L183.662 673.536C185.758 674.437 186 674.869 187.464 676.645C190.849 678.095 197.003 677.581 200.926 677.487C201.924 676.484 203.38 674.745 204.563 674.357C204.323 679.047 191.571 678.166 188.269 678.128C185.08 681.406 181.88 681.837 180.189 683.723L179.187 683.353C177.898 682.12 177.482 682.175 175.748 681.85C176.152 680.249 176.364 677.473 176.55 675.745C177.402 674.151 180.005 674.261 181.951 673.458Z"/><path fill="#42759E" d="M179.187 683.353L180.189 683.723C186.106 687.857 190.779 689.264 197.133 692.151C195.829 692.014 195.013 691.922 193.69 691.913C193.499 692.191 193.002 692.875 192.862 693.146C189.666 691.798 176.859 689.123 179.187 683.353Z"/><path fill="#5787AB" d="M213.809 674.058C218.457 673.902 224.58 673.502 229.138 674.639C230.459 674.969 230.243 675.21 230.865 676.452C227.653 676.749 217.623 677.275 214.524 676.007C213.9 675.751 213.984 674.976 213.809 674.058Z"/><path fill="#B0ADAD" d="M687.833 521.759C699.083 530.418 714.891 545.056 724.054 555.856L727.107 559.139C728.547 561.013 733.14 567.215 734.697 568.25C737.164 572.038 741.662 578 744.568 581.515C747.516 585.433 749.204 589.876 752.327 593.137C746.22 607.813 741.133 623.99 735.268 638.952C720.66 676.22 705.076 713.282 684.701 747.835C679.801 756.145 672.996 768.414 666.78 775.7C665.918 772.316 662.966 767.426 661.163 764.204C654.177 754.587 644.408 747.287 634.05 741.585L634.061 740.792L633.718 739.79C632.043 739.317 631.312 739.043 629.688 738.381L629.002 738.441C625.98 734.123 618.731 729.338 614.238 726.13L613.956 725.685C614.992 723.514 615.731 721.204 616.53 718.93C622.934 712.549 627.86 711.853 630.213 700.473C631.689 693.333 631.893 679.783 631.231 672.39C631.153 671.524 626.03 663.531 625.354 662.469C625.732 661.254 625.434 661.819 626.573 660.932C628.681 660.571 631.309 661.843 633.372 662.64L633.875 662.112C634.405 657.466 635.76 655.842 637.677 651.668C643.998 638.875 647.845 624.099 654.014 611.332C662.83 593.089 668.856 576.123 675.372 557.154L687.833 521.759Z"/><path fill="#B0ADAD" d="M727.107 559.139C728.547 561.013 733.14 567.215 734.697 568.25C737.164 572.038 741.662 578 744.568 581.515C747.516 585.433 749.204 589.876 752.327 593.137C746.22 607.813 741.133 623.99 735.268 638.952C720.66 676.22 705.076 713.282 684.701 747.835C679.801 756.145 672.996 768.414 666.78 775.7C665.918 772.316 662.966 767.426 661.163 764.204C654.177 754.587 644.408 747.287 634.05 741.585L634.061 740.792C636.784 737.264 640.357 731.083 643.055 728.105C651.301 719.001 658.488 713.344 664.837 702.457C667.271 699.802 669.549 694.16 670.953 690.866C684.205 676.69 718.782 582.37 727.107 559.139Z"/><defs><linearGradient id="gradient_4" gradientUnits="userSpaceOnUse" x1="691.47595" y1="672.75" x2="718.10559" y2="682.54437"><stop offset="0" stop-color="#8E8C8C"/><stop offset="1" stop-color="#AFADAD"/></linearGradient></defs><path fill="url(#gradient_4)" d="M661.163 764.204C662.011 760.843 664.79 746.713 666.232 745.185C669.024 744.307 669.778 744.361 670.917 741.33C672.662 736.69 670.273 735.949 669.73 732.841C671.367 733.343 671.587 736.807 673.7 737.778C677.762 733.761 683.598 721.129 686.416 715.751C703.969 682.243 716.718 646.612 730.737 611.563C735.12 600.607 737.853 591.59 744.568 581.515C747.516 585.433 749.204 589.876 752.327 593.137C746.22 607.813 741.133 623.99 735.268 638.952C720.66 676.22 705.076 713.282 684.701 747.835C679.801 756.145 672.996 768.414 666.78 775.7C665.918 772.316 662.966 767.426 661.163 764.204Z"/><path fill="#737374" d="M724.054 555.856L727.107 559.139C718.782 582.37 684.205 676.69 670.953 690.866C669.518 691.097 668.08 691.302 666.638 691.481C680.404 665.69 692.418 639.002 702.599 611.598L713.82 581.979C716.412 574.939 720.864 562.363 724.054 555.856Z"/><path fill="#737374" d="M659.638 703.076C662.207 702.214 662.182 702.027 664.837 702.457C658.488 713.344 651.301 719.001 643.055 728.105C640.357 731.083 636.784 737.264 634.061 740.792L633.718 739.79C632.043 739.317 631.312 739.043 629.688 738.381C638.681 724.299 649.08 717.552 659.638 703.076Z"/><path fill="#919090" d="M666.638 691.481C668.08 691.302 669.518 691.097 670.953 690.866C669.549 694.16 667.271 699.802 664.837 702.457C662.182 702.027 662.207 702.214 659.638 703.076C661.712 699.475 664.251 694.766 666.638 691.481Z"/><path fill="#DBD8D6" d="M676.061 515.162C680.812 517.345 683.515 518.76 687.833 521.759L675.372 557.154C668.856 576.123 662.83 593.089 654.014 611.332C647.845 624.099 643.998 638.875 637.677 651.668C635.76 655.842 634.405 657.466 633.875 662.112L633.372 662.64C631.309 661.843 628.681 660.571 626.573 660.932C625.434 661.819 625.732 661.254 625.354 662.469C626.03 663.531 631.153 671.524 631.231 672.39C631.893 679.783 631.689 693.333 630.213 700.473C627.86 711.853 622.934 712.549 616.53 718.93C615.731 721.204 614.992 723.514 613.956 725.685C610.991 724.105 606.36 721.617 603.636 719.805C602.604 707.152 533.617 680.196 520.642 675.462C535.19 677.519 549.307 683.247 564.348 685.842C557.616 673.129 541.803 670.225 529.365 665.128C523.253 662.624 517.154 659.537 511.045 656.939C507.863 655.585 505.538 655.296 502.501 653.746C502.622 653.722 514.005 654.308 514.223 654.371C518.951 655.554 523.58 655.038 528.277 656.4C549.191 662.466 570.517 671.603 592.324 673.172C597.022 673.51 602.772 671.218 602.385 665.834C602.072 661.479 596.025 657.782 592.759 655.172C602.997 657.809 614.295 660.871 620.656 649.821C627.808 637.396 632.3 623.651 637.895 610.402L655.525 568.436C660.982 555.584 666.967 542.727 671.207 529.385C672.726 524.604 673.442 520.483 675.694 515.899L676.061 515.162Z"/><path fill="#686D76" d="M296.38 430.79C300.906 430.718 325.222 432.797 329.668 434.078C339.853 435.006 353.626 437.261 363.825 438.802C391.337 442.997 418.753 447.802 446.053 453.212C482.846 460.145 519.491 467.847 555.962 476.314C595.219 485.234 639.618 496.145 677.077 510.269C681.33 512.449 685.525 514.737 689.659 517.133C690.67 514.96 691.696 512.795 692.737 510.637C706.53 521.085 715.914 532.108 728.388 543.334L728.454 543.825C729.47 544.938 730.492 546.046 731.519 547.148L731.612 547.475C738.8 555.172 744.424 562.67 750.513 571.252C753.758 574.731 754.26 578.207 756.617 581.091C755.591 583.583 754.958 585.531 754.157 588.071C753.7 589.36 752.854 592.001 752.327 593.137C749.204 589.876 747.516 585.433 744.568 581.515C741.662 578 737.164 572.038 734.697 568.25C733.14 567.215 728.547 561.013 727.107 559.139L724.054 555.856C714.891 545.056 699.083 530.418 687.833 521.759C683.515 518.76 680.812 517.345 676.061 515.162C665.18 509.917 644.366 503.845 632.74 500.569C611.247 494.367 589.576 488.798 567.755 483.869C516.804 471.699 465.501 461.052 413.914 451.942C386.709 447.091 359.671 442.13 332.162 439.017C324.099 438.916 309.09 435.862 298.775 435.415C297.302 435.196 296.833 435.232 295.504 434.553C295.135 433.007 295.674 432.612 296.38 430.79Z"/><path fill="#B0ADAD" d="M692.737 510.637C706.53 521.085 715.914 532.108 728.388 543.334L728.454 543.825L725.719 550.547C722.987 547.547 720.658 545.26 717.706 542.463C712.03 535.379 696.855 522.946 689.659 517.133C690.67 514.96 691.696 512.795 692.737 510.637Z"/><path fill="#B0ADAD" d="M731.612 547.475C738.8 555.172 744.424 562.67 750.513 571.252C749.449 573.659 748.689 575.668 747.8 578.118C746.19 575.751 743.557 572.585 741.733 570.257C737.524 564.619 733.23 558.828 728.381 553.737C729.485 551.727 730.561 549.527 731.612 547.475Z"/><path fill="#3B6C95" d="M734.697 568.25C736.997 569.201 743.096 577.938 744.63 580.447C746.044 579.592 745.96 579.675 746.847 578.281C745.333 576.122 742.348 572.904 741.313 571.218L741.733 570.257C743.557 572.585 746.19 575.751 747.8 578.118C748.689 575.668 749.449 573.659 750.513 571.252C753.758 574.731 754.26 578.207 756.617 581.091C755.591 583.583 754.958 585.531 754.157 588.071C753.7 589.36 752.854 592.001 752.327 593.137C749.204 589.876 747.516 585.433 744.568 581.515C741.662 578 737.164 572.038 734.697 568.25Z"/><path fill="#C3C1C0" d="M750.513 571.252C753.758 574.731 754.26 578.207 756.617 581.091C755.591 583.583 754.958 585.531 754.157 588.071C752.088 584.576 749.798 581.734 747.8 578.118C748.689 575.668 749.449 573.659 750.513 571.252Z"/><path fill="#919090" d="M296.38 430.79C300.906 430.718 325.222 432.797 329.668 434.078C324.268 435.595 300.973 430.163 296.904 432.056L296.217 433.318L296.496 434.258L297.526 434.559L298.211 434.155L298.213 432.748C300.163 432.268 300.39 433.193 301.594 434.742C307.774 435.794 328.241 436.534 332.162 439.017C324.099 438.916 309.09 435.862 298.775 435.415C297.302 435.196 296.833 435.232 295.504 434.553C295.135 433.007 295.674 432.612 296.38 430.79Z"/><path fill="#737374" d="M741.313 571.218C735.444 564.007 730.576 556.779 723.834 550.048C722.319 548.535 718.072 544.115 717.706 542.463C720.658 545.26 722.987 547.547 725.719 550.547L728.454 543.825C729.47 544.938 730.492 546.046 731.519 547.148L731.612 547.475C730.561 549.527 729.485 551.727 728.381 553.737C733.23 558.828 737.524 564.619 741.733 570.257L741.313 571.218Z"/><path fill="#C3C1C0" d="M202.864 635.345C206.108 633.477 208.386 630.409 209.908 627.08L210.238 628.235C213.226 625.926 218.151 622.904 222.011 623.235C222.779 623.934 223.479 624.575 224.28 625.236C226.927 624.788 229.519 624.126 232.124 624.531L232.985 625.28L232.842 626.136C229.609 628.022 226.309 629.79 222.949 631.437L223.203 631.447C222.051 631.774 221.322 631.919 220.141 632.134C218.748 633.341 218.757 633.208 218.236 634.954C213.655 635.746 202.695 640.047 201.035 640.046C201.622 638.47 202.231 636.903 202.864 635.345Z"/><path fill="#B0ADAD" d="M280.214 431.123C285.471 430.749 291.137 430.337 296.38 430.79C295.674 432.612 295.135 433.007 295.504 434.553C296.833 435.232 297.302 435.196 298.775 435.415C293.169 435.396 283.748 435.567 278.697 435.308L280.214 431.123Z"/><path fill="#333233" d="M368.528 534.128C375.87 523.893 376.185 529.1 386.537 524.34C389.371 523.037 392.898 518.1 397.88 515.601C405.061 511.999 410.244 511.438 417.35 508.706C419.149 508.014 423.78 502.524 426.457 501.063C428.598 499.569 433.592 499.649 435.589 498.505C446.001 492.54 458.562 484.308 471.142 489.267C483.498 494.139 493.411 509.006 498.817 520.683C508.551 525.57 511.312 529.271 514.227 539.661C524.097 548.641 531.771 550.159 537.69 564.443C545.66 568.724 553.38 580.321 557.38 588.549C559.259 592.413 557.317 597.297 555.647 600.968L555.637 602.281C551.962 605.479 548.777 603.35 545.613 605.146C538.297 609.298 540.513 612.599 530.22 612.884L529.583 614.065L529.911 613.194C529.432 615.556 529.27 614.502 530.061 616.503C530.387 616.744 531.231 617.411 531.503 617.385C534.824 617.065 545.782 619.65 548.011 619.457L545.342 620.022C539.406 618.245 529.659 617.852 522.654 616.138L520.906 616.811L520.661 617.773C522.524 619.304 524.109 619.527 524.744 620.943C523.962 621.971 524.351 621.69 523.254 622.258L522.235 623.335C524.112 625.634 532.929 626.702 536.355 631.474C533.175 629.146 525.309 624.727 521.281 624.603C519.286 624.542 516.884 625.293 514.444 624.765C513.328 625.042 510.779 620.892 510.442 620.758C505.123 618.642 499.074 619.608 496.27 613.929C496.719 611.945 497.46 612.604 498.939 610.324C493.683 607.57 486.056 611.553 480.89 612.934C471.314 615.494 461.676 614.608 452.455 611.112C449.327 609.926 446.805 608.066 443.348 608.177C439.186 608.159 434.863 603.807 430.858 602.598C428.014 601.773 425.184 602.697 421.665 601.547C410.072 601.632 407.715 600.988 397.455 595.77C388.822 591.379 387.842 588.775 381.163 582.594C364.84 581.903 367.498 579.293 356.947 569.864C353.125 566.448 347.587 568.641 341.557 561.054C341.101 550.027 342.705 549.905 352.074 544.455C356.484 535.609 359.306 537.58 367.936 534.353L368.528 534.128Z"/><path fill="#C3C1C0" d="M542.828 604.702C548.55 603.291 550.182 604.733 555.647 600.968L555.637 602.281C551.962 605.479 548.777 603.35 545.613 605.146C538.297 609.298 540.513 612.599 530.22 612.884L529.583 614.065L529.911 613.194C529.432 615.556 529.27 614.502 530.061 616.503C530.387 616.744 531.231 617.411 531.503 617.385C534.824 617.065 545.782 619.65 548.011 619.457L545.342 620.022C539.406 618.245 529.659 617.852 522.654 616.138L520.906 616.811L520.661 617.773C522.524 619.304 524.109 619.527 524.744 620.943C523.962 621.971 524.351 621.69 523.254 622.258L522.235 623.335C524.112 625.634 532.929 626.702 536.355 631.474C533.175 629.146 525.309 624.727 521.281 624.603C519.286 624.542 516.884 625.293 514.444 624.765C513.328 625.042 510.779 620.892 510.442 620.758C505.123 618.642 499.074 619.608 496.27 613.929C496.719 611.945 497.46 612.604 498.939 610.324C493.683 607.57 486.056 611.553 480.89 612.934C471.314 615.494 461.676 614.608 452.455 611.112C449.327 609.926 446.805 608.066 443.348 608.177C439.186 608.159 434.863 603.807 430.858 602.598C428.014 601.773 425.184 602.697 421.665 601.547C423.127 601.389 426.993 600.922 428.237 601.334C446.949 607.53 470.163 620.837 489.392 608.371C489.525 608.374 489.658 608.377 489.791 608.38L490.453 608.408C501.311 608.813 509.457 612.511 521.224 611.353C532.255 610.268 534.401 616.097 542.828 604.702Z"/><path fill="#DBD8D6" d="M513.675 616.619C513.718 615.915 513.6 616.281 514.237 615.613C517.183 615.298 519.71 615.774 522.654 616.138L520.906 616.811L520.661 617.773C522.524 619.304 524.109 619.527 524.744 620.943C523.962 621.971 524.351 621.69 523.254 622.258C519.08 620.639 517.228 620.137 512.92 619.857L513.074 619.425L513.675 616.619Z"/><path fill="#333233" d="M512.92 619.857C517.228 620.137 519.08 620.639 523.254 622.258L522.235 623.335C519.505 623.911 512.267 624.813 512.061 620.806L512.92 619.857Z"/><path fill="#333233" d="M504.982 617.477C508.128 617.04 510.503 616.811 513.675 616.619L513.074 619.425C509.226 619.879 508.457 619.209 504.982 617.477Z"/><path fill="#B0ADAD" d="M386.657 529.797C389.805 527.643 392.491 524.882 395.599 522.776C396.739 521.934 401.115 521.863 401.846 520.986C407.657 514.006 411.896 515.321 419.521 512.711C421.421 512.061 425.449 506.597 427.789 505.226C431.251 503.198 433.852 503.862 437.602 502.866C438.602 502.556 442.604 500.05 443.627 499.432C453.939 493.195 457.716 491.003 469.585 493.386C483.618 501.889 487.449 508.07 494.549 523.39L497.199 525.689C510.863 532.056 504.994 534.27 513.15 544.973C514.862 547.219 519.194 548.433 521.128 549.839C527.258 554.293 531.556 560.971 534.517 567.668C537.097 569.269 540.893 571.437 542.732 573.95C546.103 578.557 553.575 587.683 553.434 593.374C553.258 600.431 543.394 598.451 539.322 601.05C539.543 600.911 538.114 601.638 538.28 601.557L536.323 606.884C526.802 607.809 517.264 607.495 507.719 606.716C503.39 606.362 496.918 604.374 492.748 604.633C484.889 605.12 475.015 609.613 466.823 608.466C460.051 607.518 449.824 604.435 443.144 602.267C439.343 601.034 435.687 598.799 431.373 597.813C424.758 596.301 415.822 598.576 409.542 596.514C405.022 595.03 396.873 590.209 392.949 587.361C391.157 586.059 386.072 580.582 384.509 579.948C376.963 576.886 372.668 578.069 365.201 573.356C360.999 567.002 360.089 565.307 352.351 563.174C348.934 562.232 346.083 561.57 345.773 557.537L344.948 555.783C346.337 551.943 357.832 543.957 361.331 541.451C363.669 539.776 370.624 539.801 372.843 535.654C373.187 535.011 375.224 532.977 375.859 532.375L376.23 532.028C375.265 536.341 373.589 537.914 370.894 541.267C373.884 541.231 378.062 540.119 378.122 536.523L378.295 536.328C380.815 533.449 383.458 531.857 386.657 529.797Z"/><defs><linearGradient id="gradient_5" gradientUnits="userSpaceOnUse" x1="556.96198" y1="567.23077" x2="373.80289" y2="534.23608"><stop offset="0" stop-color="#7C7B7B"/><stop offset="1" stop-color="#939292"/></linearGradient></defs><path fill="url(#gradient_5)" d="M469.585 493.386C483.618 501.889 487.449 508.07 494.549 523.39L497.199 525.689C510.863 532.056 504.994 534.27 513.15 544.973C514.862 547.219 519.194 548.433 521.128 549.839C527.258 554.293 531.556 560.971 534.517 567.668C537.097 569.269 540.893 571.437 542.732 573.95C546.103 578.557 553.575 587.683 553.434 593.374C553.258 600.431 543.394 598.451 539.322 601.05C539.543 600.911 538.114 601.638 538.28 601.557L536.323 606.884C526.802 607.809 517.264 607.495 507.719 606.716C503.39 606.362 496.918 604.374 492.748 604.633C484.889 605.12 475.015 609.613 466.823 608.466C460.051 607.518 449.824 604.435 443.144 602.267C439.343 601.034 435.687 598.799 431.373 597.813C424.758 596.301 415.822 598.576 409.542 596.514C405.022 595.03 396.873 590.209 392.949 587.361C391.157 586.059 386.072 580.582 384.509 579.948C376.963 576.886 372.668 578.069 365.201 573.356C365.523 572.51 366.081 571.709 366.56 570.919C370.384 572.069 373.822 572.665 377.666 573.652C382.568 574.912 387.217 576.67 392.032 578.202L390.572 579.676C391.562 582.219 395.019 584.061 397.374 585.573C402.567 584.594 404.991 582.715 409.525 580.816C412.35 579.632 419.061 580.552 422.386 580.979C425.829 581.422 436.043 580.793 438.082 583.349L437.766 583.949C435.58 584.616 433.353 584.31 431.027 584.208L430.587 584.722L431.482 585.517C437.468 586.118 439.441 589.343 447.436 588.251C456.851 586.966 459.523 585.767 465.686 578.595C465.709 577.588 465.756 574.733 465.969 573.816C466.887 569.861 470.252 565.3 469.599 561.217C468.103 559.946 465.43 557.109 463.948 555.617C469.171 548.402 469.861 546.685 469.555 537.938C467.466 534.33 464.805 531.81 467.879 527.994C470.163 525.158 471.814 521.455 471.425 517.69C470.59 509.596 468.278 504.518 468.089 496.012L467.749 495.502L469.585 493.386Z"/><path fill="#919090" d="M468.089 496.012C470.148 498.348 470.913 500.88 472.299 503.418C477.793 513.476 477.662 523.15 477.808 534.265C477.882 539.834 478.582 546.073 478.064 551.739C477.729 556.948 474.583 558.267 470.083 559.555L469.928 559.985L470.812 560.5L469.599 561.217C468.103 559.946 465.43 557.109 463.948 555.617C469.171 548.402 469.861 546.685 469.555 537.938C467.466 534.33 464.805 531.81 467.879 527.994C470.163 525.158 471.814 521.455 471.425 517.69C470.59 509.596 468.278 504.518 468.089 496.012Z"/><path fill="#737374" d="M487.344 524.797C489.668 525.194 491.697 525.192 493.193 526.932C491.973 536.865 498.963 544.777 502.867 553.576L503.117 554.153C487.346 540.829 493.408 539.759 487.344 524.797Z"/><path fill="#9D9B9B" d="M470.812 560.5C472.836 561.555 472.442 561.006 473.545 562.726C474.045 568.081 469.622 575.118 465.686 578.595C465.709 577.588 465.756 574.733 465.969 573.816C466.887 569.861 470.252 565.3 469.599 561.217L470.812 560.5Z"/><path fill="#686D76" d="M481.82 519.802C485.614 521.108 490.762 521.98 494.212 523.614L494.549 523.39L497.199 525.689C495.914 526.143 494.504 526.743 493.193 526.932C491.697 525.192 489.668 525.194 487.344 524.797C484.673 522.987 483.948 522.108 481.82 519.802Z"/><path fill="#919090" d="M519.712 595.215L520.493 595.291L520.435 595.993C519.239 597.368 518.851 597.423 517.213 598.13C516.022 597.457 516.488 597.887 515.889 596.726C516.868 595.556 518.14 595.541 519.712 595.215Z"/><path fill="#DBD8D6" d="M386.657 529.797C389.805 527.643 392.491 524.882 395.599 522.776C396.739 521.934 401.115 521.863 401.846 520.986C407.657 514.006 411.896 515.321 419.521 512.711C421.421 512.061 425.449 506.597 427.789 505.226C431.251 503.198 433.852 503.862 437.602 502.866C438.602 502.556 442.604 500.05 443.627 499.432C453.939 493.195 457.716 491.003 469.585 493.386L467.749 495.502C466.086 496.087 461.303 493.96 458.698 494.844C445.385 499.361 443.746 506.689 429.071 506.776C419.977 517.793 420.205 513.542 408.352 518.074C406.595 518.746 402.243 524.607 401.117 525.169C396.523 527.461 382.333 536.254 378.122 536.523L378.295 536.328C380.815 533.449 383.458 531.857 386.657 529.797Z"/><path fill="#DBD8D6" d="M344.948 555.783C346.337 551.943 357.832 543.957 361.331 541.451C363.669 539.776 370.624 539.801 372.843 535.654C373.187 535.011 375.224 532.977 375.859 532.375L376.23 532.028C375.265 536.341 373.589 537.914 370.894 541.267C368.327 541.869 365.585 542.452 363.121 543.391C357.096 545.685 350.671 553.757 344.948 555.783Z"/><path fill="#919090" d="M345.773 557.537C346.87 558.247 346.596 558.172 347.29 559.248C349.036 558.345 348.459 558.147 350.355 558.646C355.935 560.117 363.912 565.703 366.56 570.919C366.081 571.709 365.523 572.51 365.201 573.356C360.999 567.002 360.089 565.307 352.351 563.174C348.934 562.232 346.083 561.57 345.773 557.537Z"/><path fill="#9D9B9B" d="M392.032 578.202C394.824 578.357 397.308 578.271 399.774 579.609L400.1 580.303C397.332 581.692 393.614 580.386 390.572 579.676L392.032 578.202Z"/><path fill="#919090" d="M456.223 546.851C457.766 551.443 451.658 559.882 446.761 561.149C446.648 558.256 454.06 549.266 456.223 546.851Z"/><path fill="#737374" d="M439.072 565.434C439.829 565.741 439.713 565.916 440.364 566.787C440.716 570.941 436.273 573.196 432.811 574.117C432.215 573.474 431.822 572.935 431.285 572.242L431.462 570.969C432.859 569.243 436.718 567.154 439.072 565.434Z"/><path fill="#919090" d="M420.097 570.939L421.107 570.77L421.855 571.86C419.43 575.549 411.718 576.575 407.623 577.004C407.379 577.103 407.098 577.049 406.836 577.055C409.676 575.622 410.299 575.812 413.158 574.851C414.94 574.252 418.385 572.009 420.097 570.939Z"/><path fill="#686D76" d="M409.022 530.499C409.224 530.719 409.231 531.06 409.316 531.346C407.192 534.606 403.7 536.755 400.495 538.921C400.328 538.786 400.437 538.915 400.234 538.248C402.731 535.334 406.005 532.908 409.022 530.499Z"/><path fill="#737374" d="M376.757 547.614L377.998 547.672C376.926 548.557 371.371 550.285 369.689 550.859L368.438 550.738L368.117 550.058C369.613 548.89 374.586 548.072 376.757 547.614Z"/><path fill="#737374" d="M418.552 539.429C418.86 540.392 418.663 540.197 418.37 541.476C416.411 543.714 414.152 544.861 411.584 546.393L411.241 546.06C412.326 544 416.062 542.699 418.552 539.429Z"/><path fill="#737374" d="M456.365 514.914C456.429 517.584 452.767 521.372 450.961 523.341L450.84 522.338C452.242 519.599 454.382 517.286 456.365 514.914Z"/><path fill="#686D76" d="M379.141 563.123C381.254 562.98 382.308 562.725 384.251 563.405C382.993 564.348 382.428 564.16 380.693 564.382C379.056 564.713 378.953 564.825 377.254 564.579L377.365 563.99L379.141 563.123Z"/><path fill="#C3C1C0" d="M376.23 532.028C378.41 529.271 383.47 529.706 386.657 529.797C383.458 531.857 380.815 533.449 378.295 536.328L378.122 536.523C378.062 540.119 373.884 541.231 370.894 541.267C373.589 537.914 375.265 536.341 376.23 532.028Z"/><path fill="#DBD8D6" d="M580.557 615.941C580.999 613.959 580.482 614.685 581.988 613.577C584.301 613.608 585.907 615.196 587.48 616.778C589.437 618.182 591.079 619.382 592.953 620.927C594.253 621.509 593.905 621.377 595.029 622.37L594.722 623.081C593.407 623.726 590.177 625.344 588.795 625.485C575.38 626.849 557.889 624.28 545.342 620.022L548.011 619.457C549.003 618.844 567.212 621.043 569.985 620.068C571.555 619.516 575.735 618.878 577.385 618.776C580.05 618.274 579.491 618.274 580.557 615.941Z"/><path fill="#C3C1C0" d="M580.557 615.941C580.999 613.959 580.482 614.685 581.988 613.577C584.301 613.608 585.907 615.196 587.48 616.778C589.437 618.182 591.079 619.382 592.953 620.927C586.301 621.151 582.77 618.878 577.385 618.776C580.05 618.274 579.491 618.274 580.557 615.941Z"/><path fill="#737374" d="M580.557 615.941C580.999 613.959 580.482 614.685 581.988 613.577C584.301 613.608 585.907 615.196 587.48 616.778C584.659 617.23 583.174 616.999 580.557 615.941Z"/><path fill="#C3C1C0" d="M361.543 589.783C356.413 588.761 350.173 586.656 345.431 584.447C347.572 584.738 350.283 585.861 352.653 586.4C349.125 577.786 357.179 581.829 344.605 575.445C347.129 575.795 359.81 581.047 361.621 582.445C364.098 583.934 368.528 587 370.975 587.625L370.657 588.945C368.898 590.977 369.314 590.915 366.033 591.233L361.543 589.783Z"/><path fill="#737374" d="M363.672 587.896C361.55 585.827 361.52 585.389 361.621 582.445C364.098 583.934 368.528 587 370.975 587.625L370.657 588.945C368.898 590.977 369.314 590.915 366.033 591.233L361.543 589.783C361.982 588.539 362.203 588.771 363.672 587.896Z"/><path fill="#B0ADAD" d="M363.672 587.896C365.74 588.233 368.749 588.561 370.657 588.945C368.898 590.977 369.314 590.915 366.033 591.233L361.543 589.783C361.982 588.539 362.203 588.771 363.672 587.896Z"/><path fill="#333233" d="M563.386 590.565C566.262 589.364 569.489 590.439 571.574 592.651C573.839 594.659 576.008 596.304 575.081 599.405C570.381 603.766 554.345 599.052 563.386 590.565Z"/><defs><linearGradient id="gradient_6" gradientUnits="userSpaceOnUse" x1="568.2088" y1="591.1228" x2="567.03339" y2="595.29138"><stop offset="0" stop-color="#747174"/><stop offset="1" stop-color="#959393"/></linearGradient></defs><path fill="url(#gradient_6)" d="M563.386 590.565C566.262 589.364 569.489 590.439 571.574 592.651C571.683 594.17 572.135 595.111 572.622 596.578L571.981 596.872C569.507 596.677 565.203 596.107 563.11 594.718C563.228 593.335 563.32 591.951 563.386 590.565Z"/><path fill="#686D76" d="M322.898 550.436C325.971 551.624 329.822 554.541 330.455 557.934C329.591 559.594 329.766 559.108 327.78 560.174C320.408 560.944 317.413 556.391 322.898 550.436Z"/><path fill="#C3C1C0" d="M536.355 631.474L537.029 632.026C533.453 634.133 513.288 628.807 508.5 627.572L475.958 619.002C471.479 617.843 465.322 616.03 460.994 615.224L461.87 614.764C465.134 615.829 489.431 622.052 491.933 621.996L493.154 620.75C495.821 621.032 495.616 621.146 496.787 623.569C502.039 625.731 531.585 633.687 536.355 631.474Z"/><path fill="#C3C1C0" d="M370.975 587.625C371.793 587.63 372.396 587.538 373.118 587.771C375.641 588.332 375.926 588.466 378.012 589.993L378.487 590.997C377.614 591.647 378.075 591.478 377.147 591.608C372.922 591.437 370.572 591.832 366.033 591.233C369.314 590.915 368.898 590.977 370.657 588.945L370.975 587.625Z"/><path fill="#333233" d="M373.118 587.771C375.641 588.332 375.926 588.466 378.012 589.993L378.487 590.997C377.614 591.647 378.075 591.478 377.147 591.608C374.626 590.57 373.829 590.474 373.118 587.771Z"/><path fill="#686D76" d="M336.147 536.749C338.62 537.206 340.662 539.031 340.297 541.67L339.103 542.373C336.627 542.092 334.815 542.384 333.624 540.1C333.988 538.385 334.818 537.929 336.147 536.749Z"/><path fill="#DBD8D6" d="M623.419 521.006C624.676 520.642 633.035 523.34 635.136 523.921C631.563 524.625 626.517 522.765 623.419 521.006Z"/><path fill="#C3C1C0" d="M664.151 526.812C665.553 530.304 664.473 533.981 663.681 537.598L663.51 537.571C662.773 536.582 663.945 528.662 664.151 526.812Z"/></svg>